<?xml version="1.0" encoding="UTF-8"?>
<svg width="50px" height="50px" viewBox="0 0 59 59" version="1.1" xmlns="http://www.w3.org/2000/svg" xmlns:xlink="http://www.w3.org/1999/xlink">
    <!-- Generator: sketchtool 52.5 (67469) - http://www.bohemiancoding.com/sketch -->
    <title>B5AF3ADC-93FE-4063-BD71-3EC39EA244B3</title>
    <desc>Created with sketchtool.</desc>
    <g id="Game" stroke="none" stroke-width="1" fill="none" fill-rule="evenodd">
        <g id="5-right-cards-6" transform="translate(-849.000000, -471.000000)" fill="#58A72D" fill-rule="nonzero">
            <g id="Dynamic-group" transform="translate(849.000000, 471.000000)">
                <g id="tick">
                    <path d="M29.4486823,0 C13.210776,0 0,13.2104688 0,29.4486823 C0,45.6868958 13.210776,58.8976719 29.4486823,58.8976719 C45.6865885,58.8976719 58.8973646,45.6868958 58.8973646,29.4486823 C58.8973646,13.2104688 45.6868958,0 29.4486823,0 Z M46.3586354,24.4745521 L27.857526,42.9756615 C27.0708594,43.7623281 26.0251458,44.1953021 24.91275,44.1953021 C23.8003542,44.1953021 22.7546406,43.7623281 21.967974,42.9756615 L12.5387292,33.5464167 C11.7520625,32.75975 11.3187813,31.7140365 11.3187813,30.6016406 C11.3187813,29.4889375 11.7520625,28.443224 12.5387292,27.6565573 C13.3250885,26.8698906 14.3708021,26.4366094 15.4835052,26.4366094 C16.595901,26.4366094 17.6419219,26.8698906 18.4282812,27.6568646 L24.9124427,34.1407188 L40.4684687,18.5846927 C41.2551354,17.798026 42.300849,17.3650521 43.4132448,17.3650521 C44.5256406,17.3650521 45.5713542,17.798026 46.3580208,18.5846927 C47.9823646,20.2090365 47.9823646,22.8508229 46.3586354,24.4745521 Z" id="check-icon"></path>
                </g>
            </g>
        </g>
    </g>
</svg>
