<?xml version="1.0" encoding="UTF-8"?>
<svg width="50px" height="50px" viewBox="0 0 50 50" version="1.1" xmlns="http://www.w3.org/2000/svg" xmlns:xlink="http://www.w3.org/1999/xlink">
    <!-- Generator: sketchtool 52.5 (67469) - http://www.bohemiancoding.com/sketch -->
    <title>D1BCA59E-9859-4068-B961-CD50E801972B</title>
    <desc>Created with sketchtool.</desc>
    <g id="Game" stroke="none" stroke-width="1" fill="none" fill-rule="evenodd">
        <g id="4-fail-cards-6" transform="translate(-850.000000, -943.000000)" fill="#E24C4B">
            <g id="Dynamic-group" transform="translate(850.000000, 943.000000)">
                <g id="close-icon">
                    <path d="M24.9513158,49.9026316 C11.1710846,49.9026316 7.03437308e-13,38.731547 7.03437308e-13,24.9513158 C7.03437308e-13,11.1710846 11.1710846,2.13162821e-14 24.9513158,2.13162821e-14 C38.731547,2.13162821e-14 49.9026316,11.1710846 49.9026316,24.9513158 C49.9026316,38.731547 38.731547,49.9026316 24.9513158,49.9026316 Z M36.335307,36.335307 C37.270943,35.3995614 37.270943,33.8401316 36.335307,32.9044956 L28.8821272,24.9513158 L36.335307,16.998136 C37.270943,16.0625 37.270943,14.5029605 36.335307,13.5673246 C35.3996711,12.6316886 33.8401316,12.6316886 32.9044956,13.5673246 L24.9513158,21.0205044 L16.998136,13.5673246 C16.0625,12.6316886 14.5029605,12.6316886 13.5673246,13.5673246 C12.6316886,14.5029605 12.6316886,16.0625 13.5673246,16.998136 L21.0205044,24.9513158 L13.5673246,32.9044956 C12.6316886,33.8401316 12.6316886,35.3996711 13.5673246,36.335307 C14.5029605,37.270943 16.0625,37.270943 16.998136,36.335307 L24.9513158,28.8821272 L32.9044956,36.335307 C33.8401316,37.270943 35.3996711,37.270943 36.335307,36.335307 Z" id="Combined-Shape"></path>
                </g>
            </g>
        </g>
    </g>
</svg>