<?xml version="1.0" encoding="UTF-8"?>
<svg width="180px" height="31px" viewBox="0 0 180 31" version="1.1" xmlns="http://www.w3.org/2000/svg" xmlns:xlink="http://www.w3.org/1999/xlink">
    <!-- Generator: sketchtool 52.5 (67469) - http://www.bohemiancoding.com/sketch -->
    <title>F53C09C2-8A74-4097-B3A8-905E64DF3A92</title>
    <desc>Created with sketchtool.</desc>
    <g id="Game" stroke="none" stroke-width="1" fill="none" fill-rule="evenodd">
        <g id="0-Start-Game" transform="translate(-938.000000, -1029.000000)" fill="#FFFFFF">
            <g id="Group-13" transform="translate(803.000000, 1029.000000)">
                <g id="TH-Logo" transform="translate(135.000000, 0.000000)">
                    <g id="Tech-Holding-Text-White" transform="translate(41.538462, 4.846154)">
                        <path d="M12.9949012,4.13495564 L8.08605193,4.13495564 L8.08605193,16.1248713 L5.02079765,16.1248713 L5.02079765,4.13495564 L0.0897364306,4.13495564 L0.0897364306,1.71076506 L12.9949012,1.71076506 L12.9949012,4.13495564 Z M25.4780375,11.8006392 L17.6149942,11.8006392 C17.9259636,13.3439754 18.8514538,14.1156319 20.3914926,14.1156319 C21.0282394,14.1156319 21.5539178,13.9991555 21.9685436,13.7661991 C22.3831694,13.5332426 22.6719224,13.1983728 22.8348111,12.7615796 L25.3225536,13.6570013 C24.96716,14.5305878 24.3711444,15.1966876 23.5344887,15.6553205 C22.697833,16.1139534 21.6501781,16.3432665 20.3914926,16.3432665 C18.5552925,16.3432665 17.1337396,15.8446016 16.1267911,14.847257 C15.1198427,13.8499124 14.616376,12.4558348 14.616376,10.6649824 C14.616376,8.87412996 15.1050348,7.48005235 16.0823671,6.48270772 C17.0596994,5.48536309 18.4368289,4.98669826 20.2137967,4.98669826 C21.9315322,4.98669826 23.2531322,5.47444343 24.1786363,6.44994839 C25.1041404,7.42545336 25.5668855,8.81589107 25.5668855,10.6213032 C25.5668855,11.028977 25.5372698,11.422085 25.4780375,11.8006392 Z M18.4257318,7.82584029 C17.9888938,8.24807376 17.7112467,8.87413469 17.5927822,9.70404186 L22.7681753,9.70404186 C22.6497108,8.88869447 22.3683617,8.26627343 21.9241198,7.83676007 C21.4798778,7.40724671 20.9023719,7.19249325 20.1915848,7.19249325 C19.4511815,7.19249325 18.8625697,7.40360682 18.4257318,7.82584029 Z M36.6284547,5.86028043 C37.4428983,6.44267145 37.9981925,7.22160776 38.2943538,8.19711273 L35.4512193,9.20173222 C35.1846742,7.87679264 34.4664937,7.21433279 33.2966565,7.21433279 C32.4229806,7.21433279 31.7529257,7.50916382 31.2864716,8.09883474 C30.8200176,8.68850565 30.586794,9.55115941 30.586794,10.6868219 C30.586794,11.8224844 30.8237195,12.6778584 31.2975776,13.2529695 C31.7714357,13.8280807 32.4303848,14.1156319 33.2744445,14.1156319 C34.5775543,14.1156319 35.3475622,13.4677316 35.5844913,12.1719116 L38.3387777,13.0454938 C38.1018487,14.0501183 37.5502565,14.8508939 36.6839847,15.4478447 C35.8177128,16.0447955 34.6960186,16.3432665 33.3188685,16.3432665 C31.4826684,16.3432665 30.0611154,15.8446016 29.0541669,14.847257 C28.0472184,13.8499124 27.5437517,12.4558348 27.5437517,10.6649824 C27.5437517,8.87412996 28.0435164,7.48005235 29.0430609,6.48270772 C30.0426053,5.48536309 31.4308407,4.98669826 33.2078086,4.98669826 C34.6738071,4.98669826 35.8140111,5.2778894 36.6284547,5.86028043 Z M50.2777209,6.01315737 C51.0107201,6.69746684 51.3772142,7.68023697 51.3772142,8.96149725 L51.3772142,16.1248712 L48.3341721,16.1248712 L48.3341721,9.83507943 C48.3341721,8.17526498 47.675223,7.34537021 46.3573052,7.34537021 C45.6465181,7.34537021 45.0430985,7.59288268 44.5470283,8.08791506 C44.0509581,8.58294744 43.8029268,9.34004443 43.8029268,10.3592287 L43.8029268,16.1248712 L40.7598846,16.1248712 L40.7598846,0.422231389 L43.8029268,0.422231389 L43.8029268,7.061456 C44.1435123,6.36258675 44.6210652,5.84208257 45.2355999,5.49992784 C45.8501346,5.15777311 46.564613,4.98669831 47.3790566,4.98669831 C48.5785099,4.98669831 49.5447217,5.32884791 50.2777209,6.01315737 Z" id="Tech-Copy-2"></path>
                        <path d="M70.1818817,1.71076512 L70.1818817,16.1248713 L68.4049228,16.1248713 L68.4049228,9.63852353 L60.4530318,9.63852353 L60.4530318,16.1248713 L58.6760729,16.1248713 L58.6760729,1.71076512 L60.4530318,1.71076512 L60.4530318,8.00055691 L68.4049228,8.00055691 L68.4049228,1.71076512 L70.1818817,1.71076512 Z M83.2758488,6.49362748 C84.230969,7.498252 84.708522,8.88868971 84.708522,10.6649823 C84.708522,12.441275 84.230969,13.8317127 83.2758488,14.8363372 C82.3207285,15.8409617 81.0065324,16.3432664 79.3332209,16.3432664 C77.6599095,16.3432664 76.3457134,15.8409617 75.3905931,14.8363372 C74.4354728,13.8317127 73.9579199,12.441275 73.9579199,10.6649823 C73.9579199,8.88868971 74.4354728,7.498252 75.3905931,6.49362748 C76.3457134,5.48900296 77.6599095,4.98669824 79.3332209,4.98669824 C81.0065324,4.98669824 82.3207285,5.48900296 83.2758488,6.49362748 Z M76.6899949,7.60744472 C76.0532481,8.34999328 75.7348795,9.36916229 75.7348795,10.6649823 C75.7348795,11.9608024 76.0532481,12.9799714 76.6899949,13.72252 C77.3267417,14.4650685 78.2078083,14.8363372 79.3332213,14.8363372 C80.4586342,14.8363372 81.3397009,14.4650685 81.9764477,13.72252 C82.6131944,12.9799714 82.9315631,11.9608024 82.9315631,10.6649823 C82.9315631,9.36916229 82.6131944,8.34999328 81.9764477,7.60744472 C81.3397009,6.86489616 80.4586342,6.49362744 79.3332213,6.49362744 C78.2078083,6.49362744 77.3267417,6.86489616 76.6899949,7.60744472 Z M89.8394915,13.1983703 C89.8394915,13.7516418 89.9246366,14.1338302 90.0949294,14.3449469 C90.2652222,14.5560637 90.5798888,14.6616205 91.0389389,14.6616205 C91.3499083,14.6616205 91.6201514,14.6397811 91.8496764,14.5961018 C92.0792014,14.5524225 92.3494446,14.4723449 92.660414,14.3558667 L92.3716581,16.0375123 C91.882992,16.2413492 91.3351017,16.3432661 90.727971,16.3432661 C89.824679,16.3432661 89.1546241,16.1030334 88.7177862,15.6225608 C88.2809482,15.1420882 88.0625326,14.4068306 88.0625326,13.4167659 L88.0625326,0.181996287 L89.8394915,0.181996287 L89.8394915,13.1983703 Z M104.810372,0.181996287 L104.810372,16.1248706 L103.255533,16.1248706 L103.144473,14.2248294 C102.818695,14.8654595 102.31893,15.3786839 101.645164,15.7645179 C100.971397,16.150352 100.205091,16.3432661 99.3462229,16.3432661 C97.791376,16.3432661 96.5586231,15.8373215 95.647927,14.8254171 C94.737231,13.8135127 94.2818898,12.4267149 94.2818898,10.6649821 C94.2818898,8.90324929 94.737231,7.51645149 95.647927,6.50454711 C96.5586231,5.49264272 97.791376,4.98669812 99.3462229,4.98669812 C100.160666,4.98669812 100.889953,5.1614128 101.534104,5.51084741 C102.178254,5.86028202 102.678019,6.32618784 103.033413,6.90857885 L103.033413,0.181996287 L104.810372,0.181996287 Z M102.089401,13.7225194 C102.718744,12.9945307 103.033411,12.0190404 103.033411,10.7960193 L103.033411,10.5339447 C103.033411,9.31092359 102.718744,8.3354333 102.089401,7.60744456 C101.460058,6.87945582 100.612309,6.5154669 99.5461287,6.5154669 C98.4651399,6.5154669 97.6136889,6.89037548 96.9917502,7.64020389 C96.3698114,8.3900323 96.0588467,9.39828158 96.0588467,10.664982 C96.0588467,11.9316824 96.3698114,12.9399317 96.9917502,13.6897601 C97.6136889,14.4395885 98.4651399,14.8144971 99.5461287,14.8144971 C100.612309,14.8144971 101.460058,14.4505082 102.089401,13.7225194 Z M108.864059,2.74814384 C108.619726,2.50790755 108.497561,2.19123719 108.497561,1.79812326 C108.497561,1.40500933 108.619726,1.08833897 108.864059,0.848102679 C109.108392,0.607866388 109.430463,0.487750045 109.83028,0.487750045 C110.230098,0.487750045 110.552169,0.607866388 110.796502,0.848102679 C111.040835,1.08833897 111.163,1.40500933 111.163,1.79812326 C111.163,2.19123719 111.040835,2.50790755 110.796502,2.74814384 C110.552169,2.98838013 110.230098,3.10849647 109.83028,3.10849647 C109.430463,3.10849647 109.108392,2.98838013 108.864059,2.74814384 Z M110.718761,16.1248705 L108.941802,16.1248705 L108.941802,5.20509352 L110.718761,5.20509352 L110.718761,16.1248705 Z M123.357381,6.05683636 C124.171825,6.77026533 124.57904,7.79671408 124.57904,9.13621338 L124.57904,16.1248705 L122.802081,16.1248705 L122.802081,9.74772088 C122.802081,8.61205842 122.55405,7.78944347 122.05798,7.27985135 C121.561909,6.77025922 120.899258,6.51546698 120.070007,6.51546698 C119.477684,6.51546698 118.92239,6.6428631 118.404108,6.89765916 C117.885825,7.15245523 117.4601,7.56740259 117.126918,8.14251371 C116.793737,8.71762482 116.627149,9.44196276 116.627149,10.3155493 L116.627149,16.1248705 L114.85019,16.1248705 L114.85019,5.20509377 L116.405029,5.20509377 L116.516089,6.90857894 C116.88629,6.25338906 117.397161,5.7692838 118.048716,5.45624864 C118.700271,5.14321347 119.433259,4.98669824 120.247703,4.98669824 C121.506388,4.98669824 122.542937,5.34340738 123.357381,6.05683636 Z M137.262085,15.4260052 C137.854408,15.891918 138.150565,16.5252587 138.150565,17.3260464 C138.150565,18.0249156 137.906235,18.6400569 137.417569,19.1714888 C136.928903,19.7029206 136.266252,20.1105882 135.429596,20.3945038 C134.59294,20.6784194 133.671152,20.8203751 132.664204,20.8203751 C130.976084,20.8203751 129.70261,20.5546632 128.843742,20.0232314 C127.984874,19.4917996 127.555446,18.7965807 127.555446,17.9375539 C127.555446,17.4425216 127.729439,17.0057348 128.077428,16.6271807 C128.425418,16.2486265 128.902971,15.9792747 129.510101,15.8191172 C129.051051,15.6007205 128.684557,15.3240889 128.410608,14.9892141 C128.136659,14.6543392 127.999686,14.2612312 127.999686,13.8098781 C127.999686,13.2711664 128.147765,12.8234601 128.443926,12.4667456 C128.740087,12.110031 129.147303,11.8443191 129.665585,11.6696018 C129.132495,11.3492867 128.728981,10.9306995 128.455032,10.4138274 C128.181083,9.8969554 128.04411,9.31821299 128.04411,8.67758286 C128.04411,7.96415385 128.236612,7.32717321 128.621622,6.76662184 C129.006632,6.20607048 129.547118,5.76928376 130.243097,5.45624858 C130.939076,5.1432134 131.723892,4.98669816 132.597568,4.98669816 C133.426819,4.98669816 134.182019,5.13229373 134.86319,5.42348925 C135.277816,3.93839212 136.321769,3.1958547 137.995081,3.1958547 L138.394896,4.72462351 C136.943706,4.72462351 136.062639,5.12501133 135.75167,5.925799 C136.195912,6.26067384 136.540194,6.66106167 136.784527,7.12697449 C137.02886,7.59288732 137.151025,8.1097516 137.151025,8.67758286 C137.151025,9.39101187 136.958523,10.0279925 136.573513,10.5885439 C136.188504,11.1490952 135.648017,11.585882 134.952038,11.8989171 C134.256059,12.2119523 133.471243,12.3684676 132.597568,12.3684676 C131.946013,12.3684676 131.375911,12.3029495 130.887245,12.1719116 C130.443003,12.27383 130.124634,12.4339851 129.932129,12.6523818 C129.739624,12.8707784 129.643373,13.1692493 129.643373,13.5478035 C129.643373,13.9263577 129.776644,14.2175488 130.043189,14.4213857 C130.309734,14.6252225 130.665122,14.7271394 131.109364,14.7271394 L134.796554,14.7271394 C135.847927,14.7271394 136.669762,14.9600924 137.262085,15.4260052 Z M130.665126,7.03961597 C130.146844,7.46184944 129.887707,8.00783281 129.887707,8.67758246 C129.887707,9.34733211 130.146844,9.89331548 130.665126,10.315549 C131.183409,10.7377824 131.82755,10.948896 132.597569,10.948896 C133.367589,10.948896 134.01173,10.7377824 134.530012,10.315549 C135.048294,9.89331548 135.307432,9.34733211 135.307432,8.67758246 C135.307432,8.00783281 135.048294,7.46184944 134.530012,7.03961597 C134.01173,6.6173825 133.367589,6.40626893 132.597569,6.40626893 C131.82755,6.40626893 131.183409,6.6173825 130.665126,7.03961597 Z M135.529549,18.8220558 C136.181103,18.4653413 136.506876,18.0321945 136.506876,17.5226024 C136.506876,17.1003689 136.340288,16.7800587 136.007106,16.5616621 C135.673925,16.3432655 135.107525,16.2340688 134.307889,16.2340688 L131.331483,16.2340688 C130.650312,16.2340688 130.124634,16.3541851 129.754432,16.5944214 C129.38423,16.8346577 129.199132,17.1658876 129.199132,17.5881211 C129.199132,18.1413925 129.510097,18.5745393 130.132036,18.8875745 C130.753974,19.2006096 131.664657,19.3571248 132.86411,19.3571248 C133.989523,19.3571248 134.877994,19.1787703 135.529549,18.8220558 Z" id="Holding-Copy-2"></path>
                    </g>
                    <g id="logo-mark-flat-white">
                        <path d="M15.6714632,0.482730901 L25.8253097,6.25729496 C26.9794453,6.91366004 27.6923084,8.13915038 27.6923084,9.4668718 L27.6923084,20.9200799 C27.6923084,22.2478013 26.9794453,23.4732917 25.8253097,24.1296568 L15.6714632,29.9042208 C14.5397009,30.547862 13.1526075,30.547862 12.0208452,29.9042208 L1.86699876,24.1296568 C0.712863113,23.4732917 7.78864173e-15,22.2478013 6.5588562e-15,20.9200799 L0,9.4668718 C0,8.13915038 0.712863113,6.91366004 1.86699876,6.25729496 L12.0208452,0.482730901 C13.1526075,-0.1609103 14.5397009,-0.1609103 15.6714632,0.482730901 Z M17.0307697,16.662837 L17.0307697,22.8884511 L20.0769236,22.8884511 L20.0769236,16.126569 L17.0307697,16.662837 Z M17.0307697,9.50474567 L17.0307697,11.9499896 L20.0769236,11.9499896 L20.0769236,7.88183684 L17.0307697,9.50474567 Z M7.61538482,9.09601835 L7.61538482,22.8884511 L10.6615387,22.8884511 L10.6615387,7.47692304 L7.61538482,9.09601835 Z M10.6615387,16.8387926 L20.0771497,15.1788588 L20.0771497,12.9192204 L10.6615387,12.9192204 L10.6615387,16.8387926 Z" id="Combined-Shape"></path>
                    </g>
                </g>
            </g>
        </g>
    </g>
</svg>