<?xml version="1.0" encoding="UTF-8"?>
<svg width="120px" height="60px" viewBox="0 0 120 60" version="1.1" xmlns="http://www.w3.org/2000/svg" xmlns:xlink="http://www.w3.org/1999/xlink">
    <!-- Generator: sketchtool 52.5 (67469) - http://www.bohemiancoding.com/sketch -->
    <title>497A05DB-520E-473E-8E8D-EC7707F009DA</title>
    <desc>Created with sketchtool.</desc>
    <g id="Game" stroke="none" stroke-width="1" fill="none" fill-rule="evenodd">
        <g id="2-open-cards-6" transform="translate(-1330.000000, -900.000000)" fill="#DADADA">
            <g id="open-card-copy-5-open-card" transform="translate(1250.000000, 580.000000)">
                <g id="card-bottom-pattern" transform="translate(80.000000, 320.000000)">
                    <path d="M61.3182787,0.348638979 L68.651612,4.51915741 C69.4851544,4.99319885 70,5.87827519 70,6.83718509 L70,15.1089464 C70,16.0678563 69.4851544,16.9529326 68.651612,17.4269741 L61.3182787,21.5974925 C60.5008948,22.0623445 59.4991052,22.0623445 58.6817213,21.5974925 L51.348388,17.4269741 C50.5148456,16.9529326 50,16.0678563 50,15.1089464 L50,6.83718509 C50,5.87827519 50.5148456,4.99319885 51.348388,4.51915741 L58.6817213,0.348638979 C59.4991052,-0.116212993 60.5008948,-0.116212993 61.3182787,0.348638979 Z M62.3,12.0342712 L62.3,16.5305481 L64.5,16.5305481 L64.5,11.6469666 L62.3,12.0342712 Z M62.3,6.86453857 L62.3,8.6305481 L64.5,8.6305481 L64.5,5.69243774 L62.3,6.86453857 Z M55.5,6.56934662 L55.5,16.5305481 L57.7,16.5305481 L57.7,5.4 L55.5,6.56934662 Z M57.7,12.1613503 L64.5001633,10.9625092 L64.5001633,9.3305481 L57.7,9.3305481 L57.7,12.1613503 Z" id="Combined-Shape-Copy"></path>
                    <path d="M116.089091,34.6445437 C113.428807,31.6637732 109.68876,30.0131449 105.569387,30 C105.549357,30 105.526197,30 105.503663,30 C97.178537,30 92.4050476,35.0670595 88.2293399,40.701855 C87.2359584,41.9149448 85.3349504,43.5142452 82.8887406,42.1390346 C81.4365382,41.3202929 80.9182522,39.4718647 81.7301084,38.0209142 C82.3410349,36.9430295 83.7206272,36.5568188 84.7997637,37.1627378 C85.5784447,37.6015282 85.8563662,38.5986654 85.4200795,39.3823539 C85.277989,39.6333596 85.0470137,39.8048697 84.7766036,39.8906248 C84.6676884,39.307866 84.1262423,38.9035027 83.5384759,38.9880059 C82.9306792,39.0793945 82.5150488,39.640245 82.6076893,40.2492937 C82.6177045,40.3137665 82.6802994,40.3400564 82.6972001,40.4007734 C82.6314754,40.7494272 82.7303754,41.1074702 83.0471057,41.2908733 C83.7043525,41.6620613 84.4730182,41.7490682 85.1991194,41.5462606 C85.9252206,41.3434531 86.5330173,40.8683576 86.8960679,40.2111108 C87.7943052,38.616818 87.2259432,36.5881163 85.6316504,35.6917569 C83.7337721,34.6238874 81.3338825,35.2992867 80.2610054,37.1921574 C78.9934581,39.4587198 79.7990549,42.3368346 82.0599837,43.6075117 C82.9513355,44.108897 83.8620917,44.3548951 84.7665884,44.3548951 C85.0664181,44.3548951 85.3606143,44.2872926 85.6579402,44.232835 C84.8028935,45.4290241 83.9541063,46.6258392 83.0733956,47.738777 C81.1122965,50.2012615 79.4322486,52.2637644 77.797895,53.8517978 C77.6101102,53.8649427 77.4216994,53.9118889 77.2764792,54.047094 C73.8763226,57.2325499 70.3315718,57.6613252 67.317626,55.2589318 C64.9640566,53.380458 64.5715864,49.9446223 66.4463046,47.5872973 C67.8922474,45.7814336 70.5356313,45.4747184 72.341495,46.9175315 C73.008131,47.4489625 73.4237613,48.208239 73.5270429,49.0532705 C73.6290727,49.8983021 73.3849525,50.7364482 72.8535215,51.3968247 C72.477326,51.8788056 71.945895,52.1492157 71.391304,52.2387265 C71.4639141,52.0371708 71.5202495,51.8293556 71.5202495,51.6015101 C71.5202495,50.6043729 70.711523,49.7918907 69.7106301,49.7918907 C68.7103631,49.7918907 67.9053924,50.6043729 67.9053924,51.6015101 C67.9053924,51.9251259 68.0105518,52.2149404 68.1589018,52.4728315 C68.1657873,52.7106922 68.2515423,52.9416675 68.453098,53.1000327 C70.2095117,54.4958996 72.7740259,54.2092148 74.1736486,52.4534271 C75.8505667,50.3477336 75.5006611,47.2711929 73.3980974,45.6005342 C70.8630028,43.5755882 67.1523754,43.9949743 65.1293072,46.5363284 C62.6962423,49.5915869 63.1913682,54.0477199 66.2021843,56.5133342 C64.8720421,55.872988 63.6933796,54.935316 62.798898,53.6871731 C61.3366805,51.6403189 60.7570514,49.0532705 61.1977197,46.5801449 C61.9006608,42.6554428 65.6569825,40.0295855 69.58857,40.739412 C70.0405054,40.813274 70.489311,40.5153222 70.5681806,40.0558754 C70.6476762,39.5958026 70.3472205,39.1563862 69.88527,39.0756388 C65.6469673,38.3113547 61.5369843,40.7212595 60.0121718,44.6046489 C58.4861074,40.7262671 54.3648573,38.3151104 50.1359438,39.0756388 C49.6752452,39.1563862 49.36853,39.5958026 49.4524072,40.0558754 C49.5331547,40.5146962 49.9769527,40.813274 50.4326438,40.739412 C54.3836357,40.0427304 58.1224309,42.6585725 58.8285017,46.5720075 C59.2729257,49.0457591 58.6864112,51.6403189 57.2273234,53.6865472 C56.330964,54.9378198 55.1516755,55.8648507 53.8196554,56.5127082 C56.8379829,54.0495978 57.3318569,49.5934647 54.898792,46.5325727 C52.8700904,43.9937224 49.1550813,43.5749623 46.6237424,45.5967785 C45.6065748,46.4073828 44.9599691,47.5672669 44.8147489,48.86173 C44.6695287,50.1549413 45.036335,51.4362595 45.8463133,52.4528011 C46.5229645,53.3040921 47.4888043,53.8392788 48.5716966,53.9575832 C49.6458255,54.0865288 50.7174507,53.7798136 51.5687418,53.0994067 C51.7684196,52.9410416 51.8560525,52.7169517 51.8679455,52.4722055 C52.0162955,52.2149404 52.1233328,51.9244999 52.1233328,51.6008841 C52.1233328,50.6037469 51.3164842,49.7912647 50.3143394,49.7912647 C49.3172022,49.7912647 48.5103535,50.6037469 48.5103535,51.6008841 C48.5103535,51.824974 48.5648111,52.0359189 48.6392991,52.2381005 C48.060296,52.1423303 47.5401321,51.8587752 47.1720739,51.3961987 C46.640643,50.7295627 46.4015304,49.8970502 46.4954228,49.0526446 C46.591193,48.2069871 47.010579,47.4483365 47.6790929,46.9200353 C49.491842,45.4778481 52.1371037,45.7783038 53.578039,47.5866713 C55.4496274,49.9371109 55.0584091,53.379832 52.70171,55.2583058 C49.6846344,57.6613252 46.1480209,57.231924 42.7416049,54.046468 C42.5963846,53.911263 42.4098517,53.8649427 42.2283264,53.8511718 C40.5908431,52.2668942 38.9076654,50.207521 36.9484442,47.738151 C36.0652297,46.6258392 35.2170684,45.4258944 34.3620217,44.2290793 C34.6555919,44.2835369 34.9529178,44.3511394 35.2546254,44.3511394 C36.1559923,44.3511394 37.0717562,44.1082711 37.9612301,43.6068857 C40.2190292,42.332453 41.0277557,39.4524603 39.7570786,37.1884017 C38.6879572,35.295531 36.2811822,34.6332767 34.3914413,35.6886272 C33.617142,36.1205322 33.0594212,36.8303587 32.8203086,37.6854054 C32.5811959,38.5404521 32.6882333,39.4361856 33.1270237,40.2104849 C33.4969598,40.8671057 34.1010008,41.3428271 34.8252242,41.5456347 C35.5481956,41.7484423 36.3118537,41.6583056 36.9709783,41.2902474 C37.2927163,41.109974 37.3872346,40.751931 37.3258916,40.4070329 C37.345922,40.3456899 37.406639,40.3162703 37.4166542,40.2517975 C37.5024093,39.6465045 37.0899087,39.0818983 36.48086,38.9911356 C35.8937196,38.9035027 35.3554032,39.307866 35.2427323,39.8937545 C34.9735741,39.8048697 34.7394691,39.6327337 34.5973786,39.3823539 C34.3845559,39.0042806 34.3263426,38.5654901 34.4452729,38.1461041 C34.5642033,37.7267181 34.8377431,37.3786903 35.2158165,37.1658675 C36.2899455,36.5605745 37.6732934,36.9461593 38.2792123,38.0209142 C39.0929464,39.4749944 38.5765383,41.3234227 37.1255878,42.1421644 C34.6749963,43.5236345 32.77837,41.9180745 31.7818587,40.7043588 C27.605525,35.0701893 22.8320357,30.0031297 14.5075361,30.0031297 C14.4875057,30.0031297 14.4662234,30.0031297 14.4430633,30.0031297 C10.3230651,30.0162747 6.58364399,31.666903 3.92148165,34.6476735 C0.977016178,37.9470522 -0.412591251,42.5715656 0.106946661,47.3394213 C0.500042817,50.9273627 2.26772362,54.1622686 5.08324353,56.4269532 C7.51067489,58.3742814 10.4651555,59.4114794 13.5304292,59.4114794 C13.6355887,59.4114794 13.743252,59.3983345 13.8521672,59.392075 C13.8715716,59.392075 13.8853425,59.4146091 13.9016172,59.4146091 C13.9398001,59.4146091 13.9723494,59.4146091 14.0105323,59.4077237 C14.0549747,59.4014642 14.0912798,59.3851895 14.1394779,59.3783041 C14.4330481,59.3651591 14.7297481,59.3651591 15.0239442,59.3319838 C17.9452496,59.0114978 20.5648474,57.5761961 22.4032605,55.2921071 C24.2422995,53.0011327 25.0804456,50.1324071 24.7637152,47.2117277 C24.2222691,42.3011555 19.8105785,38.7344964 14.878724,39.2696831 C14.4167734,39.3210109 14.0787608,39.7353893 14.1294627,40.1985918 C14.1789127,40.66555 14.595169,40.999181 15.0583715,40.949731 C19.0325235,40.5372304 22.6442509,43.4103376 23.0792857,47.3894973 C23.3503217,49.8582413 22.6386174,52.2881764 21.0837593,54.2223598 C20.8002043,54.5785249 20.470329,54.8827363 20.1448354,55.1863217 C21.0061416,53.417389 21.2740479,51.2609937 20.8070898,49.0532705 C20.4127417,47.1885676 19.3129488,45.5855114 17.7155262,44.5489394 C16.113096,43.5073598 14.1964393,43.1524465 12.3367439,43.5524281 C10.7956568,43.8785477 9.47365187,44.7849223 8.61860514,46.1037974 C7.7635584,47.4220467 7.47311793,48.9900496 7.80174131,50.5248773 C8.06902166,51.7955544 8.81139752,52.8884618 9.90430498,53.5945326 C10.9953346,54.3081148 12.2973091,54.5516091 13.5817571,54.281199 C14.6496266,54.0571091 15.5653904,53.429908 16.1562865,52.515396 C16.6263744,51.7930506 16.7753504,50.9542785 16.7321599,50.109247 C16.7321599,50.0760716 16.7521902,50.0435223 16.7521902,50.010347 C16.7521902,49.9640267 16.7321599,49.923966 16.7290301,49.8782717 C16.7146333,49.7393109 16.7521902,49.6009761 16.7208928,49.4620154 C16.7077478,49.3994205 16.6501605,49.3762603 16.6232447,49.3174211 C16.3622238,48.6570446 15.7237556,48.1882086 14.9713645,48.1750636 C13.9729754,48.1619187 13.1523559,48.961256 13.1392109,49.9577672 C13.1273179,50.8459893 13.7745495,51.5589455 14.6164513,51.7204404 C14.2715532,52.1761315 13.7977096,52.5060068 13.2337293,52.6249372 C12.3955832,52.8058365 11.5436662,52.6443416 10.8307099,52.182391 C10.1208834,51.7204404 9.63452084,51.0037285 9.46113288,50.1755976 C9.22827975,49.0795604 9.43484301,47.9641187 10.0438917,47.0195613 C10.6548182,46.0806373 11.59562,45.4340317 12.6960388,45.2011786 C14.1219513,44.9038526 15.582917,45.171133 16.804144,45.9623329 C18.0241192,46.7560366 18.8622653,47.9710042 19.162721,49.4031762 C19.6296791,51.6077696 19.2785216,53.7535237 18.1918736,55.2789622 C17.2892547,56.5465095 15.8796169,57.3521062 14.1300887,57.6488062 C11.2400808,57.7877669 8.4276906,56.9295905 6.15173898,55.1011926 C3.68737661,53.120689 2.13940401,50.294528 1.79450595,47.1491328 C1.32566993,42.8532428 2.56191979,38.7019471 5.18276947,35.7674968 C7.52444577,33.1510287 10.8169391,31.7007042 14.4499487,31.6869333 C14.4662234,31.6869333 14.4881317,31.6869333 14.5044063,31.6869333 C21.9363023,31.6869333 26.3893055,36.3120727 30.2827101,41.5237265 C30.2858399,41.5306119 30.2827101,41.5368714 30.2858399,41.5437568 C30.3021146,41.566917 30.3265266,41.5844436 30.3471829,41.6082296 C31.050124,42.554039 31.7461796,43.5111155 32.4284643,44.4719476 C32.6087377,44.7248312 32.7915149,44.9558064 32.9730402,45.2043083 C31.6310049,44.9470431 30.2664355,45.2243387 28.9957584,46.0693702 C26.8387371,47.5090536 26.2440853,50.4366184 27.6737535,52.5923878 C28.4311521,53.7272339 29.6774172,54.3450458 30.9562316,54.3450458 C31.7054929,54.3450458 32.4628915,54.1303452 33.1345351,53.6877991 C33.8725293,53.1926732 34.3757926,52.4471676 34.5523103,51.5821056 C34.7275761,50.7107842 34.556066,49.8256919 34.062192,49.0870718 C33.1990079,47.7994941 31.444472,47.4464587 30.1475051,48.3115206 C29.8864842,48.4861604 29.8088665,48.7766009 29.8307748,49.0670414 C29.7994773,49.1427813 29.7187298,49.1991167 29.7118444,49.2886274 C29.6573868,49.9058134 30.1061924,50.4341146 30.7183708,50.4866944 C31.2929923,50.5361444 31.7699657,50.1236438 31.8757511,49.5690527 C32.1824662,49.615373 32.4729067,49.7605932 32.6563099,50.0378887 C32.8954225,50.3940539 32.9799256,50.8265849 32.8922927,51.2522304 C32.8046598,51.6778759 32.5574099,52.0446822 32.1962371,52.2888024 C31.1659246,52.9817283 29.7631722,52.6944175 29.0796356,51.664731 C28.1638718,50.282009 28.5450749,48.4066649 29.9277969,47.4890232 C32.3921593,45.8596772 34.4915932,47.5422289 35.5275393,48.6839604 C35.5325469,48.6908459 35.5356766,48.6839604 35.5394323,48.6908459 C35.5625924,48.7202655 35.5888823,48.763456 35.6139203,48.7897459 C40.4130735,54.8433015 44.5606135,60.058711 51.6181918,58.9858339 C54.4305819,58.5564327 56.9049595,57.0253607 58.5881371,54.6717914 C59.2140864,53.7967142 59.6528769,52.8233631 59.9977749,51.8130809 C60.343299,52.8196074 60.7783337,53.7935845 61.4074127,54.6717914 C63.0905904,57.021605 65.563716,58.5564327 68.3754803,58.9858339 C75.439318,60.058711 79.5787207,54.837042 84.3784999,48.7897459 C84.401034,48.763456 84.4310796,48.7171357 84.450484,48.6908459 C84.4542397,48.6839604 84.4573695,48.6908459 84.4611252,48.6839604 C85.4970713,47.5353435 87.6002609,45.8471582 90.0589897,47.4890232 C91.4423376,48.4004054 91.8216629,50.282009 90.9102807,51.6616012 C90.2236144,52.6944175 88.8239917,52.9685833 87.7943052,52.2888024 C87.4343843,52.0509417 87.1802489,51.6778759 87.0976236,51.2522304 C87.0149983,50.8265849 87.0976236,50.3940539 87.3323546,50.0378887 C87.5238951,49.7605932 87.8112058,49.615373 88.1141652,49.5690527 C88.2199507,50.1236438 88.7019316,50.5330146 89.2734233,50.4866944 C89.8843498,50.4341146 90.3300257,49.9058134 90.2799498,49.2886274 C90.2730644,49.1991167 90.1935688,49.146537 90.1610194,49.0670414 C90.1772941,48.7766009 90.0984245,48.4930459 89.8442891,48.3146503 C88.5598411,47.4596036 86.7977939,47.8063795 85.9296022,49.0939572 C85.4344763,49.8332033 85.2692257,50.7145399 85.4376061,51.5827316 C85.6160016,52.454679 86.117387,53.2033143 86.8541293,53.6953105 C87.5238951,54.1378566 88.2831716,54.3488015 89.0324329,54.3488015 C90.3062397,54.3488015 91.5606421,53.7353712 92.3167888,52.5930138 C93.745831,50.4372444 93.1518052,47.515939 90.9897763,46.0699962 C89.722229,45.2280944 88.3557817,44.9526767 87.0124945,45.2118197 C87.1940198,44.9595621 87.3755451,44.7254571 87.5570704,44.4725736 C88.240607,43.5117414 88.9366626,42.554665 89.6396037,41.6088556 C89.6558784,41.5856954 89.6790385,41.5675429 89.7028246,41.5443828 C89.7059543,41.5374974 89.7028246,41.5312379 89.7059543,41.5243524 C93.6012367,36.3126986 98.0504843,31.6875593 105.484258,31.6875593 C105.500533,31.6875593 105.521189,31.6875593 105.540594,31.6875593 C109.174855,31.6975745 112.465471,33.1485249 114.806521,35.7681227 C117.4305,38.7057028 118.664872,42.8532428 118.192907,47.1497587 C117.846131,50.2951539 116.304418,53.1144295 113.835674,55.1018185 C111.5616,56.9302164 108.742324,57.7883929 105.86108,57.6494321 C104.107796,57.3521062 102.701914,56.5471354 101.804302,55.2795881 C100.718906,53.7541497 100.361489,51.6090215 100.834081,49.4006724 C101.133911,47.9716301 101.972683,46.7535328 103.194536,45.9592032 C104.418892,45.1667514 105.874225,44.9013489 107.300763,45.1986748 C108.3968,45.4315279 109.340732,46.0768816 109.951032,47.0176834 C110.561959,47.9515998 110.766644,49.0670414 110.535669,50.1768495 C110.361029,50.998095 109.875292,51.7148069 109.166092,52.1767575 C108.453136,52.6455935 107.604974,52.8070884 106.763073,52.6261891 C106.199092,52.504129 105.723371,52.169872 105.379725,51.7216923 C106.225382,51.552686 106.868858,50.837226 106.858843,49.9527596 C106.845698,48.9556224 106.030086,48.1569111 105.026689,48.1731858 C104.270542,48.183201 103.636456,48.6582965 103.376061,49.318673 C103.352901,49.3712527 103.293436,49.3912831 103.277161,49.4632673 C103.247115,49.602228 103.28342,49.7343033 103.273405,49.8688824 C103.270275,49.9189584 103.247115,49.9583932 103.247115,50.0078432 C103.247115,50.0447742 103.26652,50.0773235 103.270275,50.1136286 C103.227711,50.9586602 103.379191,51.8005619 103.848027,52.5235334 C104.442053,53.4311599 105.352809,54.058361 106.4188,54.2830768 C107.693233,54.5603724 109.003971,54.3099927 110.096252,53.5964105 C111.185404,52.8903397 111.931536,51.8011879 112.198816,50.5330146 C112.528691,48.9950572 112.238251,47.4264283 111.383204,46.1081791 C110.528158,44.7861742 109.201771,43.8797996 107.663188,43.5568098 C105.795355,43.1643396 103.887461,43.5092376 102.286283,44.553947 C100.685105,45.5955266 99.5859379,47.1929492 99.189712,49.0614078 C98.7246317,51.269131 98.991912,53.4311599 99.8538442,55.194459 C99.5239689,54.8839882 99.1934677,54.5804028 98.906157,54.2267414 C97.3519249,52.2963138 96.6452282,49.8632489 96.9156382,47.3976346 C97.3475433,43.4153452 100.929225,40.5384823 104.933423,40.9541126 C105.406014,41.0004329 105.814759,40.6705576 105.86108,40.2035994 C105.913659,39.7416488 105.576899,39.3253926 105.108689,39.2740647 C100.193109,38.7094585 95.7632656,42.3024074 95.2287049,47.2129796 C94.9088448,50.133659 95.7469909,53.0023846 97.5860299,55.293359 C99.425069,57.5874632 102.042163,59.0233908 104.963468,59.3332357 C105.263298,59.366411 105.557494,59.366411 105.85482,59.379556 C105.90114,59.3864414 105.934316,59.4058459 105.983766,59.4127313 C106.022575,59.415861 106.05575,59.4196167 106.088925,59.4196167 C106.108956,59.4196167 106.1221,59.4033421 106.142131,59.3933269 C106.247916,59.4033421 106.353076,59.415861 106.465747,59.415861 C109.529142,59.415861 112.482997,58.3761593 114.912932,56.428831 C117.728452,54.1647724 119.494255,50.9367519 119.886725,47.3450549 C120.42379,42.5684358 119.033556,37.9407927 116.089091,34.6445437 Z" transform="translate(60.000000, 44.709808) scale(1, -1) translate(-60.000000, -44.709808) "></path>
                </g>
            </g>
        </g>
    </g>
</svg>