<?xml version="1.0" encoding="UTF-8"?>
<svg width="120px" height="57px" viewBox="0 0 120 57" version="1.1" xmlns="http://www.w3.org/2000/svg" xmlns:xlink="http://www.w3.org/1999/xlink">
    <!-- Generator: sketchtool 52.5 (67469) - http://www.bohemiancoding.com/sketch -->
    <title>6D9C2C81-6033-484B-9ACB-FF06D58DBEB4</title>
    <desc>Created with sketchtool.</desc>
    <g id="Game" stroke="none" stroke-width="1" fill="none" fill-rule="evenodd">
        <g id="2-open-cards-6" transform="translate(-900.000000, -130.000000)" fill="#DADADA">
            <g id="open-card-copy-open-card" transform="translate(820.000000, 110.000000)">
                <g id="card-top-pattern" transform="translate(80.000000, 20.000000)">
                    <path d="M116.089091,4.64454375 C113.428807,1.66377322 109.68876,0.0131449351 105.569387,-3.37507799e-14 C105.549357,-3.37507799e-14 105.526197,-3.37507799e-14 105.503663,-3.37507799e-14 C97.178537,-3.37507799e-14 92.4050476,5.06705952 88.2293399,10.701855 C87.2359584,11.9149448 85.3349504,13.5142452 82.8887406,12.1390346 C81.4365382,11.3202929 80.9182522,9.47186469 81.7301084,8.02091423 C82.3410349,6.94302955 83.7206272,6.55681884 84.7997637,7.16273775 C85.5784447,7.6015282 85.8563662,8.59866543 85.4200795,9.38235394 C85.277989,9.63335961 85.0470137,9.80486971 84.7766036,9.89062477 C84.6676884,9.30786598 84.1262423,8.90350273 83.5384759,8.98800589 C82.9306792,9.07939448 82.5150488,9.64024505 82.6076893,10.2492937 C82.6177045,10.3137665 82.6802994,10.3400564 82.6972001,10.4007734 C82.6314754,10.7494272 82.7303754,11.1074702 83.0471057,11.2908733 C83.7043525,11.6620613 84.4730182,11.7490682 85.1991194,11.5462606 C85.9252206,11.3434531 86.5330173,10.8683576 86.8960679,10.2111108 C87.7943052,8.61681796 87.2259432,6.5881163 85.6316504,5.69175691 C83.7337721,4.62388742 81.3338825,5.29928671 80.2610054,7.19215737 C78.9934581,9.45871975 79.7990549,12.3368346 82.0599837,13.6075117 C82.9513355,14.108897 83.8620917,14.3548951 84.7665884,14.3548951 C85.0664181,14.3548951 85.3606143,14.2872926 85.6579402,14.232835 C84.8028935,15.4290241 83.9541063,16.6258392 83.0733956,17.738777 C81.1122965,20.2012615 79.4322486,22.2637644 77.797895,23.8517978 C77.6101102,23.8649427 77.4216994,23.9118889 77.2764792,24.047094 C73.8763226,27.2325499 70.3315718,27.6613252 67.317626,25.2589318 C64.9640566,23.380458 64.5715864,19.9446223 66.4463046,17.5872973 C67.8922474,15.7814336 70.5356313,15.4747184 72.341495,16.9175315 C73.008131,17.4489625 73.4237613,18.208239 73.5270429,19.0532705 C73.6290727,19.8983021 73.3849525,20.7364482 72.8535215,21.3968247 C72.477326,21.8788056 71.945895,22.1492157 71.391304,22.2387265 C71.4639141,22.0371708 71.5202495,21.8293556 71.5202495,21.6015101 C71.5202495,20.6043729 70.711523,19.7918907 69.7106301,19.7918907 C68.7103631,19.7918907 67.9053924,20.6043729 67.9053924,21.6015101 C67.9053924,21.9251259 68.0105518,22.2149404 68.1589018,22.4728315 C68.1657873,22.7106922 68.2515423,22.9416675 68.453098,23.1000327 C70.2095117,24.4958996 72.7740259,24.2092148 74.1736486,22.4534271 C75.8505667,20.3477336 75.5006611,17.2711929 73.3980974,15.6005342 C70.8630028,13.5755882 67.1523754,13.9949743 65.1293072,16.5363284 C62.6962423,19.5915869 63.1913682,24.0477199 66.2021843,26.5133342 C64.8720421,25.872988 63.6933796,24.935316 62.798898,23.6871731 C61.3366805,21.6403189 60.7570514,19.0532705 61.1977197,16.5801449 C61.9006608,12.6554428 65.6569825,10.0295855 69.58857,10.739412 C70.0405054,10.813274 70.489311,10.5153222 70.5681806,10.0558754 C70.6476762,9.59580265 70.3472205,9.15638625 69.88527,9.07563879 C65.6469673,8.3113547 61.5369843,10.7212595 60.0121718,14.6046489 C58.4861074,10.7262671 54.3648573,8.3151104 50.1359438,9.07563879 C49.6752452,9.15638625 49.36853,9.59580265 49.4524072,10.0558754 C49.5331547,10.5146962 49.9769527,10.813274 50.4326438,10.739412 C54.3836357,10.0427304 58.1224309,12.6585725 58.8285017,16.5720075 C59.2729257,19.0457591 58.6864112,21.6403189 57.2273234,23.6865472 C56.330964,24.9378198 55.1516755,25.8648507 53.8196554,26.5127082 C56.8379829,24.0495978 57.3318569,19.5934647 54.898792,16.5325727 C52.8700904,13.9937224 49.1550813,13.5749623 46.6237424,15.5967785 C45.6065748,16.4073828 44.9599691,17.5672669 44.8147489,18.86173 C44.6695287,20.1549413 45.036335,21.4362595 45.8463133,22.4528011 C46.5229645,23.3040921 47.4888043,23.8392788 48.5716966,23.9575832 C49.6458255,24.0865288 50.7174507,23.7798136 51.5687418,23.0994067 C51.7684196,22.9410416 51.8560525,22.7169517 51.8679455,22.4722055 C52.0162955,22.2149404 52.1233328,21.9244999 52.1233328,21.6008841 C52.1233328,20.6037469 51.3164842,19.7912647 50.3143394,19.7912647 C49.3172022,19.7912647 48.5103535,20.6037469 48.5103535,21.6008841 C48.5103535,21.824974 48.5648111,22.0359189 48.6392991,22.2381005 C48.060296,22.1423303 47.5401321,21.8587752 47.1720739,21.3961987 C46.640643,20.7295627 46.4015304,19.8970502 46.4954228,19.0526446 C46.591193,18.2069871 47.010579,17.4483365 47.6790929,16.9200353 C49.491842,15.4778481 52.1371037,15.7783038 53.578039,17.5866713 C55.4496274,19.9371109 55.0584091,23.379832 52.70171,25.2583058 C49.6846344,27.6613252 46.1480209,27.231924 42.7416049,24.046468 C42.5963846,23.911263 42.4098517,23.8649427 42.2283264,23.8511718 C40.5908431,22.2668942 38.9076654,20.207521 36.9484442,17.738151 C36.0652297,16.6258392 35.2170684,15.4258944 34.3620217,14.2290793 C34.6555919,14.2835369 34.9529178,14.3511394 35.2546254,14.3511394 C36.1559923,14.3511394 37.0717562,14.1082711 37.9612301,13.6068857 C40.2190292,12.332453 41.0277557,9.45246026 39.7570786,7.18840167 C38.6879572,5.29553101 36.2811822,4.63327666 34.3914413,5.68862717 C33.617142,6.12053218 33.0594212,6.83035868 32.8203086,7.68540541 C32.5811959,8.54045214 32.6882333,9.43618558 33.1270237,10.2104849 C33.4969598,10.8671057 34.1010008,11.3428271 34.8252242,11.5456347 C35.5481956,11.7484423 36.3118537,11.6583056 36.9709783,11.2902474 C37.2927163,11.109974 37.3872346,10.751931 37.3258916,10.4070329 C37.345922,10.3456899 37.406639,10.3162703 37.4166542,10.2517975 C37.5024093,9.64650454 37.0899087,9.08189828 36.48086,8.99113563 C35.8937196,8.90350273 35.3554032,9.30786598 35.2427323,9.89375451 C34.9735741,9.80486971 34.7394691,9.63273366 34.5973786,9.38235394 C34.3845559,9.00428057 34.3263426,8.56549011 34.4452729,8.14610409 C34.5642033,7.72671806 34.8377431,7.37869026 35.2158165,7.1658675 C36.2899455,6.56057453 37.6732934,6.9461593 38.2792123,8.02091423 C39.0929464,9.47499444 38.5765383,11.3234227 37.1255878,12.1421644 C34.6749963,13.5236345 32.77837,11.9180745 31.7818587,10.7043588 C27.605525,5.07018927 22.8320357,0.00312974646 14.5075361,0.00312974646 C14.4875057,0.00312974646 14.4662234,0.00312974646 14.4430633,0.00312974646 C10.3230651,0.0162746816 6.58364399,1.66690297 3.92148165,4.64767349 C0.977016178,7.94705221 -0.412591251,12.5715656 0.106946661,17.3394213 C0.500042817,20.9273627 2.26772362,24.1622686 5.08324353,26.4269532 C7.51067489,28.3742814 10.4651555,29.4114794 13.5304292,29.4114794 C13.6355887,29.4114794 13.743252,29.3983345 13.8521672,29.392075 C13.8715716,29.392075 13.8853425,29.4146091 13.9016172,29.4146091 C13.9398001,29.4146091 13.9723494,29.4146091 14.0105323,29.4077237 C14.0549747,29.4014642 14.0912798,29.3851895 14.1394779,29.3783041 C14.4330481,29.3651591 14.7297481,29.3651591 15.0239442,29.3319838 C17.9452496,29.0114978 20.5648474,27.5761961 22.4032605,25.2921071 C24.2422995,23.0011327 25.0804456,20.1324071 24.7637152,17.2117277 C24.2222691,12.3011555 19.8105785,8.73449642 14.878724,9.26968307 C14.4167734,9.32101091 14.0787608,9.73538934 14.1294627,10.1985918 C14.1789127,10.66555 14.595169,10.999181 15.0583715,10.949731 C19.0325235,10.5372304 22.6442509,13.4103376 23.0792857,17.3894973 C23.3503217,19.8582413 22.6386174,22.2881764 21.0837593,24.2223598 C20.8002043,24.5785249 20.470329,24.8827363 20.1448354,25.1863217 C21.0061416,23.417389 21.2740479,21.2609937 20.8070898,19.0532705 C20.4127417,17.1885676 19.3129488,15.5855114 17.7155262,14.5489394 C16.113096,13.5073598 14.1964393,13.1524465 12.3367439,13.5524281 C10.7956568,13.8785477 9.47365187,14.7849223 8.61860514,16.1037974 C7.7635584,17.4220467 7.47311793,18.9900496 7.80174131,20.5248773 C8.06902166,21.7955544 8.81139752,22.8884618 9.90430498,23.5945326 C10.9953346,24.3081148 12.2973091,24.5516091 13.5817571,24.281199 C14.6496266,24.0571091 15.5653904,23.429908 16.1562865,22.515396 C16.6263744,21.7930506 16.7753504,20.9542785 16.7321599,20.109247 C16.7321599,20.0760716 16.7521902,20.0435223 16.7521902,20.010347 C16.7521902,19.9640267 16.7321599,19.923966 16.7290301,19.8782717 C16.7146333,19.7393109 16.7521902,19.6009761 16.7208928,19.4620154 C16.7077478,19.3994205 16.6501605,19.3762603 16.6232447,19.3174211 C16.3622238,18.6570446 15.7237556,18.1882086 14.9713645,18.1750636 C13.9729754,18.1619187 13.1523559,18.961256 13.1392109,19.9577672 C13.1273179,20.8459893 13.7745495,21.5589455 14.6164513,21.7204404 C14.2715532,22.1761315 13.7977096,22.5060068 13.2337293,22.6249372 C12.3955832,22.8058365 11.5436662,22.6443416 10.8307099,22.182391 C10.1208834,21.7204404 9.63452084,21.0037285 9.46113288,20.1755976 C9.22827975,19.0795604 9.43484301,17.9641187 10.0438917,17.0195613 C10.6548182,16.0806373 11.59562,15.4340317 12.6960388,15.2011786 C14.1219513,14.9038526 15.582917,15.171133 16.804144,15.9623329 C18.0241192,16.7560366 18.8622653,17.9710042 19.162721,19.4031762 C19.6296791,21.6077696 19.2785216,23.7535237 18.1918736,25.2789622 C17.2892547,26.5465095 15.8796169,27.3521062 14.1300887,27.6488062 C11.2400808,27.7877669 8.4276906,26.9295905 6.15173898,25.1011926 C3.68737661,23.120689 2.13940401,20.294528 1.79450595,17.1491328 C1.32566993,12.8532428 2.56191979,8.70194706 5.18276947,5.76749678 C7.52444577,3.15102874 10.8169391,1.70070423 14.4499487,1.68693334 C14.4662234,1.68693334 14.4881317,1.68693334 14.5044063,1.68693334 C21.9363023,1.68693334 26.3893055,6.31207266 30.2827101,11.5237265 C30.2858399,11.5306119 30.2827101,11.5368714 30.2858399,11.5437568 C30.3021146,11.566917 30.3265266,11.5844436 30.3471829,11.6082296 C31.050124,12.554039 31.7461796,13.5111155 32.4284643,14.4719476 C32.6087377,14.7248312 32.7915149,14.9558064 32.9730402,15.2043083 C31.6310049,14.9470431 30.2664355,15.2243387 28.9957584,16.0693702 C26.8387371,17.5090536 26.2440853,20.4366184 27.6737535,22.5923878 C28.4311521,23.7272339 29.6774172,24.3450458 30.9562316,24.3450458 C31.7054929,24.3450458 32.4628915,24.1303452 33.1345351,23.6877991 C33.8725293,23.1926732 34.3757926,22.4471676 34.5523103,21.5821056 C34.7275761,20.7107842 34.556066,19.8256919 34.062192,19.0870718 C33.1990079,17.7994941 31.444472,17.4464587 30.1475051,18.3115206 C29.8864842,18.4861604 29.8088665,18.7766009 29.8307748,19.0670414 C29.7994773,19.1427813 29.7187298,19.1991167 29.7118444,19.2886274 C29.6573868,19.9058134 30.1061924,20.4341146 30.7183708,20.4866944 C31.2929923,20.5361444 31.7699657,20.1236438 31.8757511,19.5690527 C32.1824662,19.615373 32.4729067,19.7605932 32.6563099,20.0378887 C32.8954225,20.3940539 32.9799256,20.8265849 32.8922927,21.2522304 C32.8046598,21.6778759 32.5574099,22.0446822 32.1962371,22.2888024 C31.1659246,22.9817283 29.7631722,22.6944175 29.0796356,21.664731 C28.1638718,20.282009 28.5450749,18.4066649 29.9277969,17.4890232 C32.3921593,15.8596772 34.4915932,17.5422289 35.5275393,18.6839604 C35.5325469,18.6908459 35.5356766,18.6839604 35.5394323,18.6908459 C35.5625924,18.7202655 35.5888823,18.763456 35.6139203,18.7897459 C40.4130735,24.8433015 44.5606135,30.058711 51.6181918,28.9858339 C54.4305819,28.5564327 56.9049595,27.0253607 58.5881371,24.6717914 C59.2140864,23.7967142 59.6528769,22.8233631 59.9977749,21.8130809 C60.343299,22.8196074 60.7783337,23.7935845 61.4074127,24.6717914 C63.0905904,27.021605 65.563716,28.5564327 68.3754803,28.9858339 C75.439318,30.058711 79.5787207,24.837042 84.3784999,18.7897459 C84.401034,18.763456 84.4310796,18.7171357 84.450484,18.6908459 C84.4542397,18.6839604 84.4573695,18.6908459 84.4611252,18.6839604 C85.4970713,17.5353435 87.6002609,15.8471582 90.0589897,17.4890232 C91.4423376,18.4004054 91.8216629,20.282009 90.9102807,21.6616012 C90.2236144,22.6944175 88.8239917,22.9685833 87.7943052,22.2888024 C87.4343843,22.0509417 87.1802489,21.6778759 87.0976236,21.2522304 C87.0149983,20.8265849 87.0976236,20.3940539 87.3323546,20.0378887 C87.5238951,19.7605932 87.8112058,19.615373 88.1141652,19.5690527 C88.2199507,20.1236438 88.7019316,20.5330146 89.2734233,20.4866944 C89.8843498,20.4341146 90.3300257,19.9058134 90.2799498,19.2886274 C90.2730644,19.1991167 90.1935688,19.146537 90.1610194,19.0670414 C90.1772941,18.7766009 90.0984245,18.4930459 89.8442891,18.3146503 C88.5598411,17.4596036 86.7977939,17.8063795 85.9296022,19.0939572 C85.4344763,19.8332033 85.2692257,20.7145399 85.4376061,21.5827316 C85.6160016,22.454679 86.117387,23.2033143 86.8541293,23.6953105 C87.5238951,24.1378566 88.2831716,24.3488015 89.0324329,24.3488015 C90.3062397,24.3488015 91.5606421,23.7353712 92.3167888,22.5930138 C93.745831,20.4372444 93.1518052,17.515939 90.9897763,16.0699962 C89.722229,15.2280944 88.3557817,14.9526767 87.0124945,15.2118197 C87.1940198,14.9595621 87.3755451,14.7254571 87.5570704,14.4725736 C88.240607,13.5117414 88.9366626,12.554665 89.6396037,11.6088556 C89.6558784,11.5856954 89.6790385,11.5675429 89.7028246,11.5443828 C89.7059543,11.5374974 89.7028246,11.5312379 89.7059543,11.5243524 C93.6012367,6.31269861 98.0504843,1.68755929 105.484258,1.68755929 C105.500533,1.68755929 105.521189,1.68755929 105.540594,1.68755929 C109.174855,1.69757448 112.465471,3.14852494 114.806521,5.76812273 C117.4305,8.70570276 118.664872,12.8532428 118.192907,17.1497587 C117.846131,20.2951539 116.304418,23.1144295 113.835674,25.1018185 C111.5616,26.9302164 108.742324,27.7883929 105.86108,27.6494321 C104.107796,27.3521062 102.701914,26.5471354 101.804302,25.2795881 C100.718906,23.7541497 100.361489,21.6090215 100.834081,19.4006724 C101.133911,17.9716301 101.972683,16.7535328 103.194536,15.9592032 C104.418892,15.1667514 105.874225,14.9013489 107.300763,15.1986748 C108.3968,15.4315279 109.340732,16.0768816 109.951032,17.0176834 C110.561959,17.9515998 110.766644,19.0670414 110.535669,20.1768495 C110.361029,20.998095 109.875292,21.7148069 109.166092,22.1767575 C108.453136,22.6455935 107.604974,22.8070884 106.763073,22.6261891 C106.199092,22.504129 105.723371,22.169872 105.379725,21.7216923 C106.225382,21.552686 106.868858,20.837226 106.858843,19.9527596 C106.845698,18.9556224 106.030086,18.1569111 105.026689,18.1731858 C104.270542,18.183201 103.636456,18.6582965 103.376061,19.318673 C103.352901,19.3712527 103.293436,19.3912831 103.277161,19.4632673 C103.247115,19.602228 103.28342,19.7343033 103.273405,19.8688824 C103.270275,19.9189584 103.247115,19.9583932 103.247115,20.0078432 C103.247115,20.0447742 103.26652,20.0773235 103.270275,20.1136286 C103.227711,20.9586602 103.379191,21.8005619 103.848027,22.5235334 C104.442053,23.4311599 105.352809,24.058361 106.4188,24.2830768 C107.693233,24.5603724 109.003971,24.3099927 110.096252,23.5964105 C111.185404,22.8903397 111.931536,21.8011879 112.198816,20.5330146 C112.528691,18.9950572 112.238251,17.4264283 111.383204,16.1081791 C110.528158,14.7861742 109.201771,13.8797996 107.663188,13.5568098 C105.795355,13.1643396 103.887461,13.5092376 102.286283,14.553947 C100.685105,15.5955266 99.5859379,17.1929492 99.189712,19.0614078 C98.7246317,21.269131 98.991912,23.4311599 99.8538442,25.194459 C99.5239689,24.8839882 99.1934677,24.5804028 98.906157,24.2267414 C97.3519249,22.2963138 96.6452282,19.8632489 96.9156382,17.3976346 C97.3475433,13.4153452 100.929225,10.5384823 104.933423,10.9541126 C105.406014,11.0004329 105.814759,10.6705576 105.86108,10.2035994 C105.913659,9.74164883 105.576899,9.32539256 105.108689,9.27406471 C100.193109,8.70945845 95.7632656,12.3024074 95.2287049,17.2129796 C94.9088448,20.133659 95.7469909,23.0023846 97.5860299,25.293359 C99.425069,27.5874632 102.042163,29.0233908 104.963468,29.3332357 C105.263298,29.366411 105.557494,29.366411 105.85482,29.379556 C105.90114,29.3864414 105.934316,29.4058459 105.983766,29.4127313 C106.022575,29.415861 106.05575,29.4196167 106.088925,29.4196167 C106.108956,29.4196167 106.1221,29.4033421 106.142131,29.3933269 C106.247916,29.4033421 106.353076,29.415861 106.465747,29.415861 C109.529142,29.415861 112.482997,28.3761593 114.912932,26.428831 C117.728452,24.1647724 119.494255,20.9367519 119.886725,17.3450549 C120.42379,12.5684358 119.033556,7.94079272 116.089091,4.64454375 Z"></path>
                    <path d="M61.3182787,35.348639 L68.651612,39.5191574 C69.4851544,39.9931988 70,40.8782752 70,41.8371851 L70,50.1089464 C70,51.0678563 69.4851544,51.9529326 68.651612,52.4269741 L61.3182787,56.5974925 C60.5008948,57.0623445 59.4991052,57.0623445 58.6817213,56.5974925 L51.348388,52.4269741 C50.5148456,51.9529326 50,51.0678563 50,50.1089464 L50,41.8371851 C50,40.8782752 50.5148456,39.9931988 51.348388,39.5191574 L58.6817213,35.348639 C59.4991052,34.883787 60.5008948,34.883787 61.3182787,35.348639 Z M62.3,47.0342712 L62.3,51.5305481 L64.5,51.5305481 L64.5,46.6469666 L62.3,47.0342712 Z M62.3,41.8645386 L62.3,43.6305481 L64.5,43.6305481 L64.5,40.6924377 L62.3,41.8645386 Z M55.5,41.5693466 L55.5,51.5305481 L57.7,51.5305481 L57.7,40.4 L55.5,41.5693466 Z M57.7,47.1613503 L64.5001633,45.9625092 L64.5001633,44.3305481 L57.7,44.3305481 L57.7,47.1613503 Z" id="Combined-Shape"></path>
                </g>
            </g>
        </g>
    </g>
</svg>