<?xml version="1.0" encoding="UTF-8"?>
<svg width="133px" height="68px" viewBox="0 0 133 68" version="1.1" xmlns="http://www.w3.org/2000/svg" xmlns:xlink="http://www.w3.org/1999/xlink">
    <!-- Generator: sketchtool 52.5 (67469) - http://www.bohemiancoding.com/sketch -->
    <title>7D01008C-BB5E-423B-A9CA-5D905B18ECD0</title>
    <desc>Created with sketchtool.</desc>
    <defs>
        <linearGradient x1="39.0151109%" y1="44.5123416%" x2="169.592107%" y2="109.536649%" id="linearGradient-1">
            <stop stop-color="#E4F2FF" offset="0%"></stop>
            <stop stop-color="#B2CBFF" offset="100%"></stop>
        </linearGradient>
        <linearGradient x1="50.6151118%" y1="50.1841966%" x2="-36.8810888%" y2="21.6063573%" id="linearGradient-2">
            <stop stop-color="#FFFFFF" stop-opacity="0" offset="0%"></stop>
            <stop stop-color="#FFFFFF" offset="100%"></stop>
        </linearGradient>
        <linearGradient x1="68.9723556%" y1="48.8473995%" x2="241.264576%" y2="-28.622127%" id="linearGradient-3">
            <stop stop-color="#3F3CED" stop-opacity="0" offset="0%"></stop>
            <stop stop-color="#3C3DE4" stop-opacity="0.28" offset="27.96%"></stop>
            <stop stop-color="#3541CC" stop-opacity="0.731" offset="73.05%"></stop>
            <stop stop-color="#2F43BB" offset="100%"></stop>
        </linearGradient>
    </defs>
    <g id="Game" stroke="none" stroke-width="1" fill="none" fill-rule="evenodd">
        <g id="0-Start-Game" transform="translate(-1099.000000, -582.000000)">
            <g id="Group-10" transform="translate(1070.000000, 557.000000)">
                <g id="hard-cards" transform="translate(26.000000, 20.000000)">
                    <g id="Group-3-Copy-2" transform="translate(33.629755, 38.978286) rotate(-19.000000) translate(-33.629755, -38.978286) translate(9.129755, 6.978286)">
                        <path d="M46.3450852,56.1737416 L13.9880592,63.0514424 C12.5832368,63.3500017 11.2024267,62.4532614 10.9038675,61.048439 L0.0573469578,10.0192395 C-0.241212322,8.61441715 0.655528005,7.23360705 2.06013785,6.93504777 L34.4171638,0.0573469578 C35.8219862,-0.241212322 37.2027963,0.655528005 37.5013555,2.06013785 L48.347876,53.0895499 C48.6466478,54.4943722 47.7499075,55.8751823 46.3450852,56.1737416 Z" id="Path" fill="url(#linearGradient-1)"></path>
                        <path d="M4.41503745,8.46418127 C3.01021511,8.76274055 2.11347478,10.1435507 2.41203406,11.548373 L13.2587671,62.577785 C13.2982916,62.7641455 13.358216,62.9405186 13.4332277,63.1073293 C13.6161882,63.1081793 13.8016987,63.090967 13.9880592,63.0514424 L46.3450852,56.1737416 C47.7499075,55.8751823 48.6466478,54.4943722 48.347876,53.0895499 L37.5013555,2.06035035 C37.461831,1.87398986 37.4019066,1.69740427 37.3268949,1.53059357 C37.1439344,1.52974358 36.9582114,1.54695589 36.7720634,1.58648046 L4.41503745,8.46418127 Z" id="Path" fill="url(#linearGradient-2)"></path>
                        <path d="M34.4171638,0.0573469578 L33.7157089,0.206520349 L44.4132685,50.534265 C44.7118278,51.9390873 43.8150874,53.3198974 42.4104776,53.6184567 L10.7549066,60.3469841 L10.90408,61.048439 C11.2026392,62.4532614 12.5834493,63.3500017 13.9882717,63.0512299 L46.3452976,56.1735291 C47.75012,55.8749699 48.6468603,54.4941597 48.3480885,53.0893374 L37.501568,2.06013785 C37.2027963,0.655528005 35.8219862,-0.241212322 34.4171638,0.0573469578 Z" id="Path" fill="url(#linearGradient-3)"></path>
                    </g>
                    <g id="Group-3-Copy-2" transform="translate(104.629755, 38.978286) scale(-1, 1) rotate(-19.000000) translate(-104.629755, -38.978286) translate(80.129755, 6.978286)">
                        <path d="M46.3450852,56.1737416 L13.9880592,63.0514424 C12.5832368,63.3500017 11.2024267,62.4532614 10.9038675,61.048439 L0.0573469578,10.0192395 C-0.241212322,8.61441715 0.655528005,7.23360705 2.06013785,6.93504777 L34.4171638,0.0573469578 C35.8219862,-0.241212322 37.2027963,0.655528005 37.5013555,2.06013785 L48.347876,53.0895499 C48.6466478,54.4943722 47.7499075,55.8751823 46.3450852,56.1737416 Z" id="Path" fill="url(#linearGradient-1)"></path>
                        <path d="M4.41503745,8.46418127 C3.01021511,8.76274055 2.11347478,10.1435507 2.41203406,11.548373 L13.2587671,62.577785 C13.2982916,62.7641455 13.358216,62.9405186 13.4332277,63.1073293 C13.6161882,63.1081793 13.8016987,63.090967 13.9880592,63.0514424 L46.3450852,56.1737416 C47.7499075,55.8751823 48.6466478,54.4943722 48.347876,53.0895499 L37.5013555,2.06035035 C37.461831,1.87398986 37.4019066,1.69740427 37.3268949,1.53059357 C37.1439344,1.52974358 36.9582114,1.54695589 36.7720634,1.58648046 L4.41503745,8.46418127 Z" id="Path" fill="url(#linearGradient-2)"></path>
                        <path d="M34.4171638,0.0573469578 L33.7157089,0.206520349 L44.4132685,50.534265 C44.7118278,51.9390873 43.8150874,53.3198974 42.4104776,53.6184567 L10.7549066,60.3469841 L10.90408,61.048439 C11.2026392,62.4532614 12.5834493,63.3500017 13.9882717,63.0512299 L46.3452976,56.1735291 C47.75012,55.8749699 48.6468603,54.4941597 48.3480885,53.0893374 L37.501568,2.06013785 C37.2027963,0.655528005 35.8219862,-0.241212322 34.4171638,0.0573469578 Z" id="Path" fill="url(#linearGradient-3)"></path>
                    </g>
                    <g id="Group-3-Copy-3" transform="translate(29.000000, 7.000000)">
                        <path d="M46.3450852,56.1737416 L13.9880592,63.0514424 C12.5832368,63.3500017 11.2024267,62.4532614 10.9038675,61.048439 L0.0573469578,10.0192395 C-0.241212322,8.61441715 0.655528005,7.23360705 2.06013785,6.93504777 L34.4171638,0.0573469578 C35.8219862,-0.241212322 37.2027963,0.655528005 37.5013555,2.06013785 L48.347876,53.0895499 C48.6466478,54.4943722 47.7499075,55.8751823 46.3450852,56.1737416 Z" id="Path" fill="url(#linearGradient-1)"></path>
                        <path d="M4.41503745,8.46418127 C3.01021511,8.76274055 2.11347478,10.1435507 2.41203406,11.548373 L13.2587671,62.577785 C13.2982916,62.7641455 13.358216,62.9405186 13.4332277,63.1073293 C13.6161882,63.1081793 13.8016987,63.090967 13.9880592,63.0514424 L46.3450852,56.1737416 C47.7499075,55.8751823 48.6466478,54.4943722 48.347876,53.0895499 L37.5013555,2.06035035 C37.461831,1.87398986 37.4019066,1.69740427 37.3268949,1.53059357 C37.1439344,1.52974358 36.9582114,1.54695589 36.7720634,1.58648046 L4.41503745,8.46418127 Z" id="Path" fill="url(#linearGradient-2)"></path>
                        <path d="M34.4171638,0.0573469578 L33.7157089,0.206520349 L44.4132685,50.534265 C44.7118278,51.9390873 43.8150874,53.3198974 42.4104776,53.6184567 L10.7549066,60.3469841 L10.90408,61.048439 C11.2026392,62.4532614 12.5834493,63.3500017 13.9882717,63.0512299 L46.3452976,56.1735291 C47.75012,55.8749699 48.6468603,54.4941597 48.3480885,53.0893374 L37.501568,2.06013785 C37.2027963,0.655528005 35.8219862,-0.241212322 34.4171638,0.0573469578 Z" id="Path" fill="url(#linearGradient-3)"></path>
                    </g>
                    <g id="Group-3-Copy-4" transform="translate(78.500000, 39.000000) rotate(19.000000) translate(-78.500000, -39.000000) translate(54.000000, 7.000000)">
                        <path d="M46.3450852,56.1737416 L13.9880592,63.0514424 C12.5832368,63.3500017 11.2024267,62.4532614 10.9038675,61.048439 L0.0573469578,10.0192395 C-0.241212322,8.61441715 0.655528005,7.23360705 2.06013785,6.93504777 L34.4171638,0.0573469578 C35.8219862,-0.241212322 37.2027963,0.655528005 37.5013555,2.06013785 L48.347876,53.0895499 C48.6466478,54.4943722 47.7499075,55.8751823 46.3450852,56.1737416 Z" id="Path" fill="url(#linearGradient-1)"></path>
                        <path d="M4.41503745,8.46418127 C3.01021511,8.76274055 2.11347478,10.1435507 2.41203406,11.548373 L13.2587671,62.577785 C13.2982916,62.7641455 13.358216,62.9405186 13.4332277,63.1073293 C13.6161882,63.1081793 13.8016987,63.090967 13.9880592,63.0514424 L46.3450852,56.1737416 C47.7499075,55.8751823 48.6466478,54.4943722 48.347876,53.0895499 L37.5013555,2.06035035 C37.461831,1.87398986 37.4019066,1.69740427 37.3268949,1.53059357 C37.1439344,1.52974358 36.9582114,1.54695589 36.7720634,1.58648046 L4.41503745,8.46418127 Z" id="Path" fill="url(#linearGradient-2)"></path>
                        <path d="M34.4171638,0.0573469578 L33.7157089,0.206520349 L44.4132685,50.534265 C44.7118278,51.9390873 43.8150874,53.3198974 42.4104776,53.6184567 L10.7549066,60.3469841 L10.90408,61.048439 C11.2026392,62.4532614 12.5834493,63.3500017 13.9882717,63.0512299 L46.3452976,56.1735291 C47.75012,55.8749699 48.6468603,54.4941597 48.3480885,53.0893374 L37.501568,2.06013785 C37.2027963,0.655528005 35.8219862,-0.241212322 34.4171638,0.0573469578 Z" id="Path" fill="url(#linearGradient-3)"></path>
                    </g>
                </g>
            </g>
        </g>
    </g>
</svg>