<?xml version="1.0" encoding="UTF-8"?>
<svg width="280px" height="400px" viewBox="0 0 280 400" version="1.1" xmlns="http://www.w3.org/2000/svg" xmlns:xlink="http://www.w3.org/1999/xlink">
    <!-- Generator: sketchtool 52.5 (67469) - http://www.bohemiancoding.com/sketch -->
    <title>6A0B58DD-3E19-4163-8DF0-1D873528E1BD</title>
    <desc>Created with sketchtool.</desc>
    <defs>
        <rect id="path-1" x="0" y="0" width="280" height="400" rx="10"></rect>
        <linearGradient x1="50%" y1="0%" x2="50%" y2="100%" id="linearGradient-3">
            <stop stop-color="#FFFFFF" offset="0%"></stop>
            <stop stop-color="#FFFFFF" stop-opacity="0" offset="100%"></stop>
        </linearGradient>
    </defs>
    <g id="Game" stroke="none" stroke-width="1" fill="none" fill-rule="evenodd">
        <g id="3-close-cards-6" transform="translate(-390.000000, -110.000000)">
            <g id="card-pattern" transform="translate(390.000000, 110.000000)">
                <g id="card-bg">
                    <mask id="mask-2" fill="white">
                        <use xlink:href="#path-1"></use>
                    </mask>
                    <use id="Mask" fill="#FFE9C9" xlink:href="#path-1"></use>
                    <g id="Group-3" opacity="0.300000012" mask="url(#mask-2)" fill="url(#linearGradient-3)">
                        <g transform="translate(-53.000000, -14.000000)">
                            <path d="M288.522389,259.85312 L314.44564,259.85312 C317.759349,259.85312 320.44564,262.539412 320.44564,265.85312 L320.44564,308.029192 C320.44564,311.342901 317.759349,314.029192 314.44564,314.029192 L288.522389,314.029192 C285.208681,314.029192 282.522389,311.342901 282.522389,308.029192 L282.522389,265.85312 C282.522389,262.539412 285.208681,259.85312 288.522389,259.85312 Z" id="Rectangle-Copy-6" transform="translate(301.484015, 286.941156) rotate(28.000000) translate(-301.484015, -286.941156) "></path>
                            <path d="M194.797784,217.731224 L220.721035,217.731224 C224.034744,217.731224 226.721035,220.417516 226.721035,223.731224 L226.721035,265.907296 C226.721035,269.221005 224.034744,271.907296 220.721035,271.907296 L194.797784,271.907296 C191.484076,271.907296 188.797784,269.221005 188.797784,265.907296 L188.797784,223.731224 C188.797784,220.417516 191.484076,217.731224 194.797784,217.731224 Z" id="Rectangle-Copy-10" transform="translate(207.759410, 244.819260) rotate(28.000000) translate(-207.759410, -244.819260) "></path>
                            <path d="M85.4975588,312.810231 L111.420809,312.810231 C114.734518,312.810231 117.420809,315.496522 117.420809,318.810231 L117.420809,360.986303 C117.420809,364.300012 114.734518,366.986303 111.420809,366.986303 L85.4975588,366.986303 C82.1838503,366.986303 79.4975588,364.300012 79.4975588,360.986303 L79.4975588,318.810231 C79.4975588,315.496522 82.1838503,312.810231 85.4975588,312.810231 Z" id="Rectangle-Copy-14" transform="translate(98.459184, 339.898267) rotate(28.000000) translate(-98.459184, -339.898267) "></path>
                            <path d="M122.743608,244.54838 L148.666859,244.54838 C151.980567,244.54838 154.666859,247.234671 154.666859,250.54838 L154.666859,292.724452 C154.666859,296.038161 151.980567,298.724452 148.666859,298.724452 L122.743608,298.724452 C119.4299,298.724452 116.743608,296.038161 116.743608,292.724452 L116.743608,250.54838 C116.743608,247.234671 119.4299,244.54838 122.743608,244.54838 Z" id="Rectangle-Copy-16" transform="translate(135.705234, 271.636416) rotate(28.000000) translate(-135.705234, -271.636416) "></path>
                            <path d="M326.44564,299.130773 L352.368891,299.130773 C355.682599,299.130773 358.368891,301.817064 358.368891,305.130773 L358.368891,347.306845 C358.368891,350.620553 355.682599,353.306845 352.368891,353.306845 L326.44564,353.306845 C323.131932,353.306845 320.44564,350.620553 320.44564,347.306845 L320.44564,305.130773 C320.44564,301.817064 323.131932,299.130773 326.44564,299.130773 Z" id="Rectangle-Copy-7" transform="translate(339.407265, 326.218809) rotate(28.000000) translate(-339.407265, -326.218809) "></path>
                            <path d="M231.366633,257.008876 L257.289884,257.008876 C260.603592,257.008876 263.289884,259.695168 263.289884,263.008876 L263.289884,305.184949 C263.289884,308.498657 260.603592,311.184949 257.289884,311.184949 L231.366633,311.184949 C228.052925,311.184949 225.366633,308.498657 225.366633,305.184949 L225.366633,263.008876 C225.366633,259.695168 228.052925,257.008876 231.366633,257.008876 Z" id="Rectangle-Copy-11" transform="translate(244.328259, 284.096913) rotate(28.000000) translate(-244.328259, -284.096913) "></path>
                            <path d="M119.357604,352.112867 L145.280854,352.112867 C148.594563,352.112867 151.280854,354.799158 151.280854,358.112867 L151.280854,400.288939 C151.280854,403.602648 148.594563,406.288939 145.280854,406.288939 L119.357604,406.288939 C116.043895,406.288939 113.357604,403.602648 113.357604,400.288939 L113.357604,358.112867 C113.357604,354.799158 116.043895,352.112867 119.357604,352.112867 Z" id="Rectangle-Copy-15" transform="translate(132.319229, 379.200903) rotate(28.000000) translate(-132.319229, -379.200903) "></path>
                            <path d="M250.734579,327.03145 L276.65783,327.03145 C279.971538,327.03145 282.65783,329.717741 282.65783,333.03145 L282.65783,375.207522 C282.65783,378.52123 279.971538,381.207522 276.65783,381.207522 L250.734579,381.207522 C247.420871,381.207522 244.734579,378.52123 244.734579,375.207522 L244.734579,333.03145 C244.734579,329.717741 247.420871,327.03145 250.734579,327.03145 Z" id="Rectangle-Copy-8" transform="translate(263.696204, 354.119486) rotate(28.000000) translate(-263.696204, -354.119486) "></path>
                            <path d="M159.718778,284.909554 L185.642028,284.909554 C188.955737,284.909554 191.642028,287.595845 191.642028,290.909554 L191.642028,333.085626 C191.642028,336.399334 188.955737,339.085626 185.642028,339.085626 L159.718778,339.085626 C156.405069,339.085626 153.718778,336.399334 153.718778,333.085626 L153.718778,290.909554 C153.718778,287.595845 156.405069,284.909554 159.718778,284.909554 Z" id="Rectangle-Copy-12" transform="translate(172.680403, 311.997590) rotate(28.000000) translate(-172.680403, -311.997590) "></path>
                            <path d="M285.678146,365.902782 L311.601396,365.902782 C314.915105,365.902782 317.601396,368.589073 317.601396,371.902782 L317.601396,414.078854 C317.601396,417.392562 314.915105,420.078854 311.601396,420.078854 L285.678146,420.078854 C282.364437,420.078854 279.678146,417.392562 279.678146,414.078854 L279.678146,371.902782 C279.678146,368.589073 282.364437,365.902782 285.678146,365.902782 Z" id="Rectangle-Copy-9" transform="translate(298.639771, 392.990818) rotate(28.000000) translate(-298.639771, -392.990818) "></path>
                            <path d="M194.662344,323.780885 L220.585595,323.780885 C223.899303,323.780885 226.585595,326.467177 226.585595,329.780885 L226.585595,371.956958 C226.585595,375.270666 223.899303,377.956958 220.585595,377.956958 L194.662344,377.956958 C191.348636,377.956958 188.662344,375.270666 188.662344,371.956958 L188.662344,329.780885 C188.662344,326.467177 191.348636,323.780885 194.662344,323.780885 Z" id="Rectangle-Copy-13" transform="translate(207.623970, 350.868922) rotate(28.000000) translate(-207.623970, -350.868922) "></path>
                            <path d="M54.55436,111.970808 L80.4776105,111.970808 C83.791319,111.970808 86.4776105,114.657099 86.4776105,117.970808 L86.4776105,160.14688 C86.4776105,163.460588 83.791319,166.14688 80.4776105,166.14688 L54.55436,166.14688 C51.2406515,166.14688 48.55436,163.460588 48.55436,160.14688 L48.55436,117.970808 C48.55436,114.657099 51.2406515,111.970808 54.55436,111.970808 Z" id="Rectangle-Copy-6" transform="translate(67.515985, 139.058844) scale(-1, -1) rotate(28.000000) translate(-67.515985, -139.058844) "></path>
                            <path d="M148.278965,154.092704 L174.202216,154.092704 C177.515924,154.092704 180.202216,156.778995 180.202216,160.092704 L180.202216,202.268776 C180.202216,205.582484 177.515924,208.268776 174.202216,208.268776 L148.278965,208.268776 C144.965256,208.268776 142.278965,205.582484 142.278965,202.268776 L142.278965,160.092704 C142.278965,156.778995 144.965256,154.092704 148.278965,154.092704 Z" id="Rectangle-Copy-10" transform="translate(161.240590, 181.180740) scale(-1, -1) rotate(28.000000) translate(-161.240590, -181.180740) "></path>
                            <path d="M257.579191,59.013697 L283.502441,59.013697 C286.81615,59.013697 289.502441,61.6999885 289.502441,65.013697 L289.502441,107.189769 C289.502441,110.503478 286.81615,113.189769 283.502441,113.189769 L257.579191,113.189769 C254.265482,113.189769 251.579191,110.503478 251.579191,107.189769 L251.579191,65.013697 C251.579191,61.6999885 254.265482,59.013697 257.579191,59.013697 Z" id="Rectangle-Copy-14" transform="translate(270.540816, 86.101733) scale(-1, -1) rotate(28.000000) translate(-270.540816, -86.101733) "></path>
                            <path d="M220.333141,127.275548 L246.256392,127.275548 C249.5701,127.275548 252.256392,129.961839 252.256392,133.275548 L252.256392,175.45162 C252.256392,178.765329 249.5701,181.45162 246.256392,181.45162 L220.333141,181.45162 C217.019433,181.45162 214.333141,178.765329 214.333141,175.45162 L214.333141,133.275548 C214.333141,129.961839 217.019433,127.275548 220.333141,127.275548 Z" id="Rectangle-Copy-16" transform="translate(233.294766, 154.363584) scale(-1, -1) rotate(28.000000) translate(-233.294766, -154.363584) "></path>
                            <path d="M16.6311094,72.6931552 L42.55436,72.6931552 C45.8680685,72.6931552 48.55436,75.3794467 48.55436,78.6931552 L48.55436,120.869227 C48.55436,124.182936 45.8680685,126.869227 42.55436,126.869227 L16.6311094,126.869227 C13.3174009,126.869227 10.6311094,124.182936 10.6311094,120.869227 L10.6311094,78.6931552 C10.6311094,75.3794467 13.3174009,72.6931552 16.6311094,72.6931552 Z" id="Rectangle-Copy-7" transform="translate(29.592735, 99.781191) scale(-1, -1) rotate(28.000000) translate(-29.592735, -99.781191) "></path>
                            <path d="M111.710116,114.815051 L137.633367,114.815051 C140.947075,114.815051 143.633367,117.501343 143.633367,120.815051 L143.633367,162.991124 C143.633367,166.304832 140.947075,168.991124 137.633367,168.991124 L111.710116,168.991124 C108.396408,168.991124 105.710116,166.304832 105.710116,162.991124 L105.710116,120.815051 C105.710116,117.501343 108.396408,114.815051 111.710116,114.815051 Z" id="Rectangle-Copy-11" transform="translate(124.671741, 141.903087) scale(-1, -1) rotate(28.000000) translate(-124.671741, -141.903087) "></path>
                            <path d="M223.719146,19.7110609 L249.642396,19.7110609 C252.956105,19.7110609 255.642396,22.3973524 255.642396,25.7110609 L255.642396,67.8871332 C255.642396,71.2008417 252.956105,73.8871332 249.642396,73.8871332 L223.719146,73.8871332 C220.405437,73.8871332 217.719146,71.2008417 217.719146,67.8871332 L217.719146,25.7110609 C217.719146,22.3973524 220.405437,19.7110609 223.719146,19.7110609 Z" id="Rectangle-Copy-15" transform="translate(236.680771, 46.799097) scale(-1, -1) rotate(28.000000) translate(-236.680771, -46.799097) "></path>
                            <path d="M92.3421704,44.792478 L118.265421,44.792478 C121.579129,44.792478 124.265421,47.4787695 124.265421,50.792478 L124.265421,92.9685502 C124.265421,96.2822587 121.579129,98.9685502 118.265421,98.9685502 L92.3421704,98.9685502 C89.0284619,98.9685502 86.3421704,96.2822587 86.3421704,92.9685502 L86.3421704,50.792478 C86.3421704,47.4787695 89.0284619,44.792478 92.3421704,44.792478 Z" id="Rectangle-Copy-8" transform="translate(105.303796, 71.880514) scale(-1, -1) rotate(28.000000) translate(-105.303796, -71.880514) "></path>
                            <path d="M183.357972,86.9143742 L209.281222,86.9143742 C212.594931,86.9143742 215.281222,89.6006657 215.281222,92.9143742 L215.281222,135.090446 C215.281222,138.404155 212.594931,141.090446 209.281222,141.090446 L183.357972,141.090446 C180.044263,141.090446 177.357972,138.404155 177.357972,135.090446 L177.357972,92.9143742 C177.357972,89.6006657 180.044263,86.9143742 183.357972,86.9143742 Z" id="Rectangle-Copy-12" transform="translate(196.319597, 114.002410) scale(-1, -1) rotate(28.000000) translate(-196.319597, -114.002410) "></path>
                            <path d="M57.3986038,5.92114618 L83.3218543,5.92114618 C86.6355628,5.92114618 89.3218543,8.60743768 89.3218543,11.9211462 L89.3218543,54.0972184 C89.3218543,57.4109269 86.6355628,60.0972184 83.3218543,60.0972184 L57.3986038,60.0972184 C54.0848953,60.0972184 51.3986038,57.4109269 51.3986038,54.0972184 L51.3986038,11.9211462 C51.3986038,8.60743768 54.0848953,5.92114618 57.3986038,5.92114618 Z" id="Rectangle-Copy-9" transform="translate(70.360229, 33.009182) scale(-1, -1) rotate(28.000000) translate(-70.360229, -33.009182) "></path>
                            <path d="M148.414405,48.0430423 L174.337656,48.0430423 C177.651364,48.0430423 180.337656,50.7293338 180.337656,54.0430423 L180.337656,96.2191146 C180.337656,99.5328231 177.651364,102.219115 174.337656,102.219115 L148.414405,102.219115 C145.100697,102.219115 142.414405,99.5328231 142.414405,96.2191146 L142.414405,54.0430423 C142.414405,50.7293338 145.100697,48.0430423 148.414405,48.0430423 Z" id="Rectangle-Copy-13" transform="translate(161.376030, 75.131078) scale(-1, -1) rotate(28.000000) translate(-161.376030, -75.131078) "></path>
                        </g>
                    </g>
                </g>
                <rect id="Rectangle" fill="#FFFFFF" transform="translate(141.000000, 200.000000) rotate(-45.000000) translate(-141.000000, -200.000000) " x="91" y="150" width="100" height="100" rx="17"></rect>
                <rect id="Rectangle-Copy" fill="#F6DBB4" opacity="0.300000012" style="mix-blend-mode: multiply;" transform="translate(169.710678, 199.710678) rotate(-45.000000) translate(-169.710678, -199.710678) " x="119.710678" y="149.710678" width="100" height="100" rx="17"></rect>
                <rect id="Rectangle-Copy-3" fill="#F6DBB4" opacity="0.300000012" style="mix-blend-mode: multiply;" transform="translate(139.710678, 281.710678) rotate(-45.000000) translate(-139.710678, -281.710678) " x="89.7106781" y="231.710678" width="100" height="100" rx="17"></rect>
                <rect id="Rectangle-Copy-4" fill="#F6DBB4" opacity="0.300000012" style="mix-blend-mode: multiply;" transform="translate(139.710678, 119.710678) rotate(-45.000000) translate(-139.710678, -119.710678) " x="89.7106781" y="69.7106781" width="100" height="100" rx="17"></rect>
                <rect id="Rectangle-Copy-2" fill="#F6DBB4" opacity="0.300000012" style="mix-blend-mode: multiply;" transform="translate(109.710678, 199.710678) rotate(-45.000000) translate(-109.710678, -199.710678) " x="59.7106781" y="149.710678" width="100" height="100" rx="17"></rect>
                <path d="M142.636557,178.697278 L157.303224,187.038315 C158.970309,187.986398 160,189.75655 160,191.67437 L160,208.217893 C160,210.135713 158.970309,211.905865 157.303224,212.853948 L142.636557,221.194985 C141.00179,222.124689 138.99821,222.124689 137.363443,221.194985 L122.696776,212.853948 C121.029691,211.905865 120,210.135713 120,208.217893 L120,191.67437 C120,189.75655 121.029691,187.986398 122.696776,187.038315 L137.363443,178.697278 C138.99821,177.767574 141.00179,177.767574 142.636557,178.697278 Z M144.6,202.068542 L144.6,211.061096 L149,211.061096 L149,201.293933 L144.6,202.068542 Z M144.6,191.729077 L144.6,195.261096 L149,195.261096 L149,189.384875 L144.6,191.729077 Z M131,191.138693 L131,211.061096 L135.4,211.061096 L135.4,188.8 L131,191.138693 Z M135.4,202.322701 L149.000327,199.925018 L149.000327,196.661096 L135.4,196.661096 L135.4,202.322701 Z" id="Combined-Shape" fill="#D7A666"></path>
            </g>
        </g>
    </g>
</svg>