<?xml version="1.0" encoding="UTF-8"?>
<svg width="50px" height="44px" viewBox="0 0 200 176" version="1.1" xmlns="http://www.w3.org/2000/svg" xmlns:xlink="http://www.w3.org/1999/xlink">
    <!-- Generator: sketchtool 52.5 (67469) - http://www.bohemiancoding.com/sketch -->
    <title>446113F1-E088-4AC3-B8C4-3CB863D7E2F8</title>
    <desc>Created with sketchtool.</desc>
    <defs>
        <linearGradient x1="42.8326361%" y1="41.5717334%" x2="127.607549%" y2="141.725871%" id="linearGradient-1">
            <stop stop-color="#E4F2FF" offset="0%"></stop>
            <stop stop-color="#B2CBFF" offset="100%"></stop>
        </linearGradient>
        <linearGradient x1="50.4066881%" y1="50.3743942%" x2="-12.8362917%" y2="-3.07260935%" id="linearGradient-2">
            <stop stop-color="#FFFFFF" stop-opacity="0" offset="0%"></stop>
            <stop stop-color="#FFFFFF" offset="100%"></stop>
        </linearGradient>
        <linearGradient x1="74.1948108%" y1="51.8578694%" x2="237.711005%" y2="19.4372046%" id="linearGradient-3">
            <stop stop-color="#3F3CED" stop-opacity="0" offset="0%"></stop>
            <stop stop-color="#3C3DE4" stop-opacity="0.28" offset="27.96%"></stop>
            <stop stop-color="#3541CC" stop-opacity="0.731" offset="73.05%"></stop>
            <stop stop-color="#2F43BB" offset="100%"></stop>
        </linearGradient>
        <linearGradient x1="72.0521899%" y1="54.5525605%" x2="4.39609921%" y2="41.5267264%" id="linearGradient-4">
            <stop stop-color="#3F3CED" stop-opacity="0" offset="0%"></stop>
            <stop stop-color="#3C3DE4" stop-opacity="0.28" offset="27.96%"></stop>
            <stop stop-color="#3541CC" stop-opacity="0.731" offset="73.05%"></stop>
            <stop stop-color="#2F43BB" offset="100%"></stop>
        </linearGradient>
        <linearGradient x1="40.8443528%" y1="41.9448018%" x2="149.746379%" y2="138.771447%" id="linearGradient-5">
            <stop stop-color="#E4F2FF" offset="0%"></stop>
            <stop stop-color="#B2CBFF" offset="100%"></stop>
        </linearGradient>
        <linearGradient x1="50.5585968%" y1="50.449115%" x2="-28.1480342%" y2="0.376457139%" id="linearGradient-6">
            <stop stop-color="#FFFFFF" stop-opacity="0" offset="0%"></stop>
            <stop stop-color="#FFFFFF" offset="100%"></stop>
        </linearGradient>
        <linearGradient x1="77.8702932%" y1="52.717163%" x2="254.357679%" y2="6.47143128%" id="linearGradient-7">
            <stop stop-color="#3F3CED" stop-opacity="0" offset="0%"></stop>
            <stop stop-color="#3C3DE4" stop-opacity="0.28" offset="27.96%"></stop>
            <stop stop-color="#3541CC" stop-opacity="0.731" offset="73.05%"></stop>
            <stop stop-color="#2F43BB" offset="100%"></stop>
        </linearGradient>
        <linearGradient x1="72.5640872%" y1="49.957252%" x2="6.11641182%" y2="50.1413562%" id="linearGradient-8">
            <stop stop-color="#3F3CED" stop-opacity="0" offset="0%"></stop>
            <stop stop-color="#3C3DE4" stop-opacity="0.28" offset="27.96%"></stop>
            <stop stop-color="#3541CC" stop-opacity="0.731" offset="73.05%"></stop>
            <stop stop-color="#2F43BB" offset="100%"></stop>
        </linearGradient>
        <linearGradient x1="38.7801906%" y1="43.4105018%" x2="173.377117%" y2="121.752756%" id="linearGradient-9">
            <stop stop-color="#E4F2FF" offset="0%"></stop>
            <stop stop-color="#B2CBFF" offset="100%"></stop>
        </linearGradient>
        <linearGradient x1="50.7613542%" y1="50.2626184%" x2="-41.7262127%" y2="13.3167034%" id="linearGradient-10">
            <stop stop-color="#FFFFFF" stop-opacity="0" offset="0%"></stop>
            <stop stop-color="#FFFFFF" offset="100%"></stop>
        </linearGradient>
        <linearGradient x1="75.8985943%" y1="50.9797673%" x2="258.426806%" y2="-18.2069273%" id="linearGradient-11">
            <stop stop-color="#3F3CED" stop-opacity="0" offset="0%"></stop>
            <stop stop-color="#3C3DE4" stop-opacity="0.28" offset="27.96%"></stop>
            <stop stop-color="#3541CC" stop-opacity="0.731" offset="73.05%"></stop>
            <stop stop-color="#2F43BB" offset="100%"></stop>
        </linearGradient>
        <linearGradient x1="64.5439327%" y1="46.6950089%" x2="19.8753344%" y2="50.7307207%" id="linearGradient-12">
            <stop stop-color="#3F3CED" stop-opacity="0" offset="0%"></stop>
            <stop stop-color="#3C3DE4" stop-opacity="0.28" offset="27.96%"></stop>
            <stop stop-color="#3541CC" stop-opacity="0.731" offset="73.05%"></stop>
            <stop stop-color="#2F43BB" offset="100%"></stop>
        </linearGradient>
        <linearGradient x1="39.0151109%" y1="44.5123416%" x2="169.592107%" y2="109.536649%" id="linearGradient-13">
            <stop stop-color="#E4F2FF" offset="0%"></stop>
            <stop stop-color="#B2CBFF" offset="100%"></stop>
        </linearGradient>
        <linearGradient x1="50.6151118%" y1="50.1841966%" x2="-36.8810888%" y2="21.6063573%" id="linearGradient-14">
            <stop stop-color="#FFFFFF" stop-opacity="0" offset="0%"></stop>
            <stop stop-color="#FFFFFF" offset="100%"></stop>
        </linearGradient>
        <linearGradient x1="68.9723556%" y1="48.8473995%" x2="241.264576%" y2="-28.622127%" id="linearGradient-15">
            <stop stop-color="#3F3CED" stop-opacity="0" offset="0%"></stop>
            <stop stop-color="#3C3DE4" stop-opacity="0.28" offset="27.96%"></stop>
            <stop stop-color="#3541CC" stop-opacity="0.731" offset="73.05%"></stop>
            <stop stop-color="#2F43BB" offset="100%"></stop>
        </linearGradient>
        <linearGradient x1="97.7801824%" y1="56.7822782%" x2="27.1187182%" y2="43.9667667%" id="linearGradient-16">
            <stop stop-color="#FCB37E" offset="0%"></stop>
            <stop stop-color="#8C6239" offset="100%"></stop>
        </linearGradient>
        <linearGradient x1="103.929221%" y1="49.2900667%" x2="32.4886851%" y2="50.2111605%" id="linearGradient-17">
            <stop stop-color="#FCB37E" offset="0%"></stop>
            <stop stop-color="#8C6239" offset="100%"></stop>
        </linearGradient>
        <linearGradient x1="99.5142129%" y1="46.3033319%" x2="28.760743%" y2="53.4372964%" id="linearGradient-18">
            <stop stop-color="#FCB37E" offset="0%"></stop>
            <stop stop-color="#8C6239" offset="100%"></stop>
        </linearGradient>
        <linearGradient x1="66.2857778%" y1="28.1676412%" x2="29.7087473%" y2="62.2175111%" id="linearGradient-19">
            <stop stop-color="#FCB37E" offset="0%"></stop>
            <stop stop-color="#8C6239" offset="100%"></stop>
        </linearGradient>
        <linearGradient x1="50.0003012%" y1="5.18380025%" x2="50.0003012%" y2="34.9303399%" id="linearGradient-20">
            <stop stop-color="#8C6239" stop-opacity="0" offset="0%"></stop>
            <stop stop-color="#8C6239" offset="100%"></stop>
        </linearGradient>
        <linearGradient x1="46.6028306%" y1="57.3359391%" x2="-2.02851916%" y2="105.228634%" id="linearGradient-21">
            <stop stop-color="#FFDAAA" stop-opacity="0" offset="0%"></stop>
            <stop stop-color="#FFDFB5" stop-opacity="0.205" offset="20.54%"></stop>
            <stop stop-color="#FFECD4" stop-opacity="0.57" offset="57.03%"></stop>
            <stop stop-color="#FFFFFF" offset="100%"></stop>
        </linearGradient>
        <linearGradient x1="36.4041739%" y1="15.428046%" x2="74.2592635%" y2="111.689195%" id="linearGradient-22">
            <stop stop-color="#F8F6FB" offset="0%"></stop>
            <stop stop-color="#EFDCFB" offset="100%"></stop>
        </linearGradient>
        <linearGradient x1="2.90374522%" y1="-17.8044366%" x2="97.5126148%" y2="119.130886%" id="linearGradient-23">
            <stop stop-color="#AE23AB" offset="0%"></stop>
            <stop stop-color="#D76D6D" offset="100%"></stop>
        </linearGradient>
        <path d="M76.5228556,92.8744151 L76.5228556,84.5680489 C76.5228556,82.6377067 74.9581742,81.0730253 73.027832,81.0730253 L36.2223617,81.0730253 C34.2920195,81.0730253 32.7273382,82.6377067 32.7273382,84.5680489 L32.7273382,92.8744151 C32.7273382,94.8047573 34.2920195,96.3694386 36.2223617,96.3694386 L73.027832,96.3694386 C74.9581742,96.3694386 76.5228556,94.8047573 76.5228556,92.8744151 Z" id="path-24"></path>
        <filter x="-139.3%" y="-268.0%" width="378.6%" height="897.6%" filterUnits="objectBoundingBox" id="filter-25">
            <feOffset dx="0" dy="20" in="SourceAlpha" result="shadowOffsetOuter1"></feOffset>
            <feGaussianBlur stdDeviation="17" in="shadowOffsetOuter1" result="shadowBlurOuter1"></feGaussianBlur>
            <feColorMatrix values="0 0 0 0 0   0 0 0 0 0   0 0 0 0 0  0 0 0 0.5 0" type="matrix" in="shadowBlurOuter1"></feColorMatrix>
        </filter>
        <path d="M76.5228556,92.8744151 L76.5228556,84.5680489 C76.5228556,82.6377067 74.9581742,81.0730253 73.027832,81.0730253 L36.2223617,81.0730253 C34.2920195,81.0730253 32.7273382,82.6377067 32.7273382,84.5680489 L32.7273382,92.8744151 C32.7273382,94.8047573 34.2920195,96.3694386 36.2223617,96.3694386 L73.027832,96.3694386 C74.9581742,96.3694386 76.5228556,94.8047573 76.5228556,92.8744151 Z" id="path-26"></path>
        <filter x="-139.3%" y="-268.0%" width="378.6%" height="897.6%" filterUnits="objectBoundingBox" id="filter-27">
            <feOffset dx="0" dy="20" in="SourceAlpha" result="shadowOffsetOuter1"></feOffset>
            <feGaussianBlur stdDeviation="17" in="shadowOffsetOuter1" result="shadowBlurOuter1"></feGaussianBlur>
            <feColorMatrix values="0 0 0 0 0   0 0 0 0 0   0 0 0 0 0  0 0 0 0.5 0" type="matrix" in="shadowBlurOuter1"></feColorMatrix>
        </filter>
    </defs>
    <g id="Game" stroke="none" stroke-width="1" fill="none" fill-rule="evenodd">
        <g id="0-Start-Game" transform="translate(-860.000000, -80.000000)">
            <g id="hand-logo" transform="translate(860.000000, 80.000000)">
                <g id="poker-cards" transform="translate(23.546945, 0.000000)">
                    <path d="M132.910538,92.680962 L87.3465626,82.9960364 C85.3683434,82.5756161 84.1055866,80.6312101 84.5260068,78.6529909 L99.7999778,6.79524736 C100.220398,4.81702814 102.164804,3.55427135 104.143023,3.9749908 L149.706999,13.6599164 C151.685218,14.0803366 152.947975,16.0247427 152.527554,18.0029619 L137.253883,89.8607054 C136.832864,91.8386254 134.888458,93.1013822 132.910538,92.680962 Z" id="Path" fill="url(#linearGradient-1)"></path>
                    <path d="M106.296293,7.29077467 C104.318074,6.87035446 102.373668,8.13311125 101.953247,10.1110312 L86.6795757,81.9687747 C86.6239186,82.2309015 86.5996809,82.4924298 86.6008778,82.7500681 C86.8357745,82.855996 87.0844359,82.9400801 87.3465626,82.9957371 L132.910538,92.6806628 C134.888757,93.101083 136.833163,91.8383262 137.253583,89.860107 L152.527255,18.0026627 C152.582912,17.7402367 152.60715,17.4790076 152.605953,17.2213693 C152.371056,17.1154414 152.122395,17.0313574 151.860268,16.9754011 L106.296293,7.29077467 Z" id="Path" fill="url(#linearGradient-2)"></path>
                    <path d="M149.706999,13.6599164 L148.719236,13.4498559 L133.655325,84.3195371 C133.234905,86.2977563 131.290499,87.5605131 129.31228,87.1400929 L84.7360673,77.6652278 L84.5260068,78.6529909 C84.1055866,80.6312101 85.3683434,82.5756161 87.3462634,82.9960364 L132.910239,92.680962 C134.888458,93.1013822 136.832864,91.8386254 137.253284,89.8604062 L152.526956,18.0029619 C152.947675,16.0247427 151.684919,14.0803366 149.706999,13.6599164 Z" id="Path" fill="url(#linearGradient-3)"></path>
                    <path d="M120.443059,7.43949271 L104.143023,3.97469156 C102.164804,3.55427135 100.220398,4.81702814 99.7999778,6.79494813 L84.5260068,78.6529909 C84.1055866,80.6312101 85.3683434,82.5756161 87.3462634,82.9960364 L132.910239,92.680962 C134.888458,93.1013822 136.832864,91.8386254 137.253284,89.8604062 L148.754545,35.7512779 L120.443059,7.43949271 Z" id="Path" fill="url(#linearGradient-4)"></path>
                    <path d="M108.923545,85.2336893 L62.5968288,80.3645948 C60.5856942,80.1533374 59.1266415,78.3513655 59.337899,76.3402309 L67.0167768,3.27957687 C67.2280342,1.26844218 69.0300061,-0.190610444 71.0411408,0.0206469712 L117.367857,4.88974139 C119.378992,5.1009988 120.838044,6.90297069 120.626787,8.91410537 L112.947909,81.9747594 C112.736652,83.9861933 110.93468,85.4452459 108.923545,85.2336893 Z" id="Path" fill="url(#linearGradient-5)"></path>
                    <path d="M73.5295497,3.0934549 C71.518415,2.88219748 69.7164431,4.34125011 69.5051857,6.35238479 L61.8263078,79.4130388 C61.7981801,79.679654 61.8014716,79.94208 61.8295994,80.1982221 C62.0743707,80.2790146 62.3305128,80.3367663 62.5971281,80.3645948 L108.923844,85.2336893 C110.934979,85.4449467 112.736951,83.9861933 112.948208,81.9747594 L120.627086,8.91440461 C120.655214,8.64778937 120.651923,8.38536337 120.623795,8.12922124 C120.379023,8.04842874 120.123181,7.99067707 119.856266,7.96284854 L73.5295497,3.0934549 Z" id="Path" fill="url(#linearGradient-6)"></path>
                    <path d="M117.367857,4.89004062 L116.363337,4.78441191 L108.789789,76.8405459 C108.578531,78.8516805 106.776559,80.3110324 104.765425,80.0994758 L59.4432284,75.3360101 L59.3375997,76.3402309 C59.1263423,78.3513655 60.5853949,80.1533374 62.5965296,80.3645948 L108.923246,85.2336893 C110.934381,85.4449467 112.736353,83.9861933 112.94761,81.9747594 L120.626488,8.91440461 C120.838344,6.90297069 119.379291,5.10129803 117.367857,4.89004062 Z" id="Path" fill="url(#linearGradient-7)"></path>
                    <path d="M62.5968288,80.3645948 L108.923545,85.2336893 C110.93468,85.4449467 112.736652,83.985894 112.947909,81.9747594 L117.931609,34.5579428 L84.9781456,1.60447912 C84.9482224,1.5604921 84.9159054,1.51830046 84.8841869,1.47580959 L76.3028269,0.573925952 L67.7259554,1.47551036 C67.3444353,1.98599924 67.0879939,2.60002221 67.0167768,3.2798761 L59.337899,76.3405301 C59.1266415,78.3513655 60.5856942,80.1533374 62.5968288,80.3645948 Z" id="Path" fill="url(#linearGradient-8)"></path>
                    <path d="M90.0121165,80.3642956 L43.6856994,85.2339885 C41.6745647,85.4455451 39.8725929,83.9864925 39.6613354,81.9750586 L31.9812606,8.91470384 C31.769704,6.90356915 33.2287566,5.10159726 35.2401905,4.89033985 L81.5666076,0.0206469712 C83.5777423,-0.190610444 85.3797142,1.26814295 85.5909716,3.27957687 L93.2710464,76.3399316 C93.4826031,78.3510663 92.0235505,80.152739 90.0121165,80.3642956 Z" id="Path" fill="url(#linearGradient-9)"></path>
                    <path d="M38.3126992,7.37844949 C36.3015645,7.59000614 34.8425119,9.39167879 35.0537693,11.4028135 L42.7338441,84.4631682 C42.7619719,84.7297835 42.8197236,84.9859256 42.9002168,85.2306969 C43.156359,85.2588247 43.418785,85.2621162 43.6854002,85.2339885 L90.0121165,80.3642956 C92.0232512,80.1530382 93.4823038,78.3510663 93.2710464,76.3399316 L85.5909716,3.27957687 C85.5628439,3.01296163 85.5050922,2.7568195 85.4245989,2.51204816 C85.1684568,2.4839204 84.9060308,2.48062885 84.6394156,2.50875661 L38.3126992,7.37844949 Z" id="Path" fill="url(#linearGradient-10)"></path>
                    <path d="M81.5666076,0.0206469712 L80.5620876,0.126275679 L88.1365337,72.1824096 C88.3480904,74.1935443 86.8890377,75.9955162 84.8776038,76.2067736 L39.5554075,80.971137 L39.6610362,81.9753578 C39.8725929,83.9864925 41.6742655,85.4455451 43.6854002,85.2342877 L90.0121165,80.3645948 C92.0232512,80.1533374 93.4823038,78.3513655 93.2710464,76.3402309 L85.5909716,3.2798761 C85.3797142,1.26814295 83.5777423,-0.190909675 81.5666076,0.0206469712 Z" id="Path" fill="url(#linearGradient-11)"></path>
                    <path d="M48.4650244,3.9749908 L32.125191,7.44817042 C31.9821583,7.90868765 31.9276982,8.40481342 31.9812606,8.91500307 L39.6613354,81.9753578 C39.8728921,83.9864925 41.6745647,85.4455451 43.6856994,85.2342877 L90.0124158,80.3645948 C92.0235505,80.1530382 93.4826031,78.3513655 93.2713457,76.3402309 L89.7867952,43.1919675 L52.4810099,5.88588294 C51.7451997,4.45046959 50.1185775,3.62339382 48.4650244,3.9749908 Z" id="Path" fill="url(#linearGradient-12)"></path>
                    <path d="M65.2614851,82.9960364 L19.6975097,92.680962 C17.7192905,93.1013822 15.7748844,91.8386254 15.3544642,89.8604062 L0.0807924958,18.0029619 C-0.339627714,16.0247427 0.923129073,14.0803366 2.90104906,13.6599164 L48.4650244,3.9749908 C50.4432436,3.55457059 52.3876497,4.81732737 52.8080699,6.79524736 L68.0817416,78.6529909 C68.5024611,80.6312101 67.2397043,82.5756161 65.2614851,82.9960364 Z" id="Path" fill="url(#linearGradient-13)"></path>
                    <path d="M6.21713217,15.8131861 C4.23891295,16.2336063 2.97615616,18.1780123 3.39657637,20.1562316 L18.6705473,92.013975 C18.7262044,92.276401 18.8105877,92.5247632 18.9162164,92.7596599 C19.1738547,92.7608568 19.4350837,92.736619 19.6975097,92.680962 L65.2614851,82.9960364 C67.2397043,82.5756161 68.5024611,80.6312101 68.0817416,78.6529909 L52.8080699,6.79554659 C52.7524128,6.5331206 52.6680296,6.28445925 52.5624009,6.04956255 C52.3047626,6.04836562 52.0432343,6.07260337 51.7811075,6.12826042 L6.21713217,15.8131861 Z" id="Path" fill="url(#linearGradient-14)"></path>
                    <path d="M48.4650244,3.9749908 L47.4772613,4.18505128 L62.5411718,75.0547325 C62.961592,77.0329517 61.6988352,78.9773578 59.7209152,79.397778 L15.144703,88.8726431 L15.3547634,89.8604062 C15.7751837,91.8386254 17.7195897,93.1013822 19.6978089,92.6806628 L65.2617843,82.9957371 C67.2400035,82.5753169 68.5027603,80.6309108 68.0820409,78.6526916 L52.8083691,6.79524736 C52.3876497,4.81732737 50.4432436,3.55457059 48.4650244,3.9749908 Z" id="Path" fill="url(#linearGradient-15)"></path>
                </g>
                <g id="Group" transform="translate(0.000000, 25.931446)">
                    <path d="M28.6854224,27.8976395 C29.0645487,28.8013185 29.0816049,29.7819 28.6492154,30.6188504 L25.1389311,37.4170901 C23.8489443,39.9165705 23.3567085,42.766451 23.66372,45.6833593 C19.5998574,43.5169235 17.492071,39.1268987 18.8134771,35.5337272 C19.1495141,34.6198743 19.538515,33.724873 19.9798814,32.8523141 L22.9473599,26.989472 C23.4847796,25.9277987 24.6107876,25.3469904 25.8687567,25.3353204 C26.1102364,25.4185068 26.347527,25.5208439 26.5809275,25.6468204 C27.5779668,26.1800508 28.3095877,27.0023389 28.6854224,27.8976395 Z" id="Path" fill="url(#linearGradient-16)"></path>
                    <path d="M18.8002662,18.3185296 L16.4040206,28.2422419 C16.0476359,29.7189492 15.764563,31.2055311 15.5536048,32.6972 C14.7247336,38.561239 18.5004363,44.0934303 24.2540589,45.4974244 C23.1516902,41.341997 23.094537,36.934916 24.1478317,32.69331 L27.0159653,21.1561416 C27.3693577,19.735989 27.1096248,18.3014734 26.4028401,17.1383607 C25.7026384,15.9860203 24.5619681,15.0979013 23.1492963,14.7507928 C22.8186456,14.6679057 22.488294,14.6215248 22.1576432,14.6050671 C20.5420926,15.1736068 19.2341518,16.5213454 18.8002662,18.3185296 Z" id="Path" fill="url(#linearGradient-17)"></path>
                    <path d="M10.5740179,12.5414396 L10.3792182,25.6148624 C10.350492,27.5601661 10.4160237,29.4973906 10.5734194,31.420252 C11.1916316,38.9797366 17.4692085,44.8261209 25.0529308,44.9574836 C22.503778,40.0770183 21.1892541,34.5873179 21.3089467,28.991091 L21.6378021,13.7685879 C21.6787968,11.8948004 20.9495697,10.1757156 19.73858,8.92223503 C18.538961,7.68012521 16.8632648,6.89224876 15.0005489,6.85723868 C14.5642695,6.84676558 14.1384631,6.88237412 13.7204367,6.95478814 C11.863107,8.12119239 10.6093272,10.1739203 10.5740179,12.5414396 Z" id="Path" fill="url(#linearGradient-18)"></path>
                    <path d="M6.91877546,0.00123973887 C10.4640699,0.0703622075 13.2879172,3.01270521 13.2119124,6.55740116 L12.9016094,20.9884371 C12.7807199,26.6044132 14.1829185,32.0994999 16.880191,36.9287965 C19.2441195,34.7273506 22.9521959,34.8216085 25.2158819,37.1648901 L27.9541491,39.9995098 C33.3804125,45.6166829 40.3534033,49.4923288 47.979018,51.129125 C56.7444053,53.0103932 63.9531906,59.2502669 67.0768679,67.6595688 L74.8266636,88.5228843 L69.875879,93.3052016 L55.3350251,107.351127 L53.2164663,103.916548 C45.8787123,92.0206009 37.2782015,80.9484382 27.5654474,70.8936625 L16.3089581,59.2409908 C5.79546053,48.3573439 0.0170016905,33.7614314 0.245016068,18.664007 L0.432035734,6.26714664 C0.485298935,2.7377115 3.38934031,-0.0675834983 6.91877546,0.00123973887 Z" id="Path" fill="url(#linearGradient-19)"></path>
                    <path d="M55.4529675,107.351467 L53.3344087,103.916589 C53.3344087,103.916589 53.3344087,103.916589 53.3341095,103.916589 C45.9963555,92.0206423 37.3958447,80.9487788 27.6833897,70.8940031 L25.2757734,68.4017042 L67.194511,67.6602086 L74.9443067,88.5235242 L69.9935221,93.3058414 L55.9311394,106.889753 L55.4529675,107.351467 Z" id="Path" fill="url(#linearGradient-20)"></path>
                    <path d="M16.6252193,36.8784666 C16.6518509,36.8527327 16.7479042,36.7599709 16.7479042,36.7599709 C19.1118327,34.558525 22.8196098,34.6524837 25.0835951,36.9960645 L27.8218623,39.8306842 C33.2481257,45.4478573 40.2211165,49.3235033 47.8467312,50.9602994 C56.6118193,52.8415676 63.8209038,59.0814414 66.9445811,67.4907432 L67.239324,68.2843051 L45.2808214,67.9042811 L38.329076,63.6049234 C31.4500438,59.3504504 25.1275821,54.2557355 19.5080152,48.4383766 L16.5519075,45.3784356 C14.2657791,43.0115147 14.2582984,39.164595 16.6252193,36.8784666 Z" id="Path" fill="url(#linearGradient-21)"></path>
                    <path d="M20.8643815,46.7958271 C22.1890867,46.8431586 23.4806912,46.1476792 24.7391952,44.709389 C26.130154,43.1197218 26.8256334,42.0765027 26.8256334,41.5797317 C25.2242674,38.4997516 23.4358918,36.9597615 21.4605067,36.9597615 C18.4974291,36.9597615 16.09538,39.0281927 16.09538,41.5797317 C16.09538,43.2807578 17.6850472,45.0194563 20.8643815,46.7958271 Z" id="Oval" fill="#FFE9D5"></path>
                    <path d="M73.0265322,107.477864 L36.2602612,107.477864 C35.4613132,107.477864 34.8137763,106.830328 34.8137763,106.03138 L34.8137763,92.6536384 C34.8137763,91.8546904 35.4613132,91.2071535 36.2602612,91.2071535 L73.0265322,91.2071535 C73.8254803,91.2071535 74.4730172,91.8546904 74.4730172,92.6536384 L74.4730172,106.03138 C74.4730172,106.830328 73.8254803,107.477864 73.0265322,107.477864 Z" id="Path" fill="url(#linearGradient-22)"></path>
                    <g id="Path">
                        <use fill="black" fill-opacity="1" filter="url(#filter-25)" xlink:href="#path-24"></use>
                        <use fill="url(#linearGradient-23)" fill-rule="evenodd" xlink:href="#path-24"></use>
                    </g>
                    <path d="M0.596125186,0 L0.596125186,0 C2.90074113,-4.23351081e-16 4.76900149,1.86826036 4.76900149,4.1728763 L4.76900149,12.2205663 C4.3715847,12.8166915 3.57675112,13.1147541 2.38450075,13.1147541 C1.19225037,13.1147541 0.496770989,12.8166915 0.298062593,12.2205663 L0.596125186,0 Z" id="Rectangle" fill="#FFE9D5"></path>
                </g>
                <g id="Group-Copy" transform="translate(161.500000, 79.931446) scale(-1, 1) translate(-161.500000, -79.931446) translate(123.000000, 25.931446)">
                    <path d="M28.6854224,27.8976395 C29.0645487,28.8013185 29.0816049,29.7819 28.6492154,30.6188504 L25.1389311,37.4170901 C23.8489443,39.9165705 23.3567085,42.766451 23.66372,45.6833593 C19.5998574,43.5169235 17.492071,39.1268987 18.8134771,35.5337272 C19.1495141,34.6198743 19.538515,33.724873 19.9798814,32.8523141 L22.9473599,26.989472 C23.4847796,25.9277987 24.6107876,25.3469904 25.8687567,25.3353204 C26.1102364,25.4185068 26.347527,25.5208439 26.5809275,25.6468204 C27.5779668,26.1800508 28.3095877,27.0023389 28.6854224,27.8976395 Z" id="Path" fill="url(#linearGradient-16)"></path>
                    <path d="M18.8002662,18.3185296 L16.4040206,28.2422419 C16.0476359,29.7189492 15.764563,31.2055311 15.5536048,32.6972 C14.7247336,38.561239 18.5004363,44.0934303 24.2540589,45.4974244 C23.1516902,41.341997 23.094537,36.934916 24.1478317,32.69331 L27.0159653,21.1561416 C27.3693577,19.735989 27.1096248,18.3014734 26.4028401,17.1383607 C25.7026384,15.9860203 24.5619681,15.0979013 23.1492963,14.7507928 C22.8186456,14.6679057 22.488294,14.6215248 22.1576432,14.6050671 C20.5420926,15.1736068 19.2341518,16.5213454 18.8002662,18.3185296 Z" id="Path" fill="url(#linearGradient-17)"></path>
                    <path d="M10.5740179,12.5414396 L10.3792182,25.6148624 C10.350492,27.5601661 10.4160237,29.4973906 10.5734194,31.420252 C11.1916316,38.9797366 17.4692085,44.8261209 25.0529308,44.9574836 C22.503778,40.0770183 21.1892541,34.5873179 21.3089467,28.991091 L21.6378021,13.7685879 C21.6787968,11.8948004 20.9495697,10.1757156 19.73858,8.92223503 C18.538961,7.68012521 16.8632648,6.89224876 15.0005489,6.85723868 C14.5642695,6.84676558 14.1384631,6.88237412 13.7204367,6.95478814 C11.863107,8.12119239 10.6093272,10.1739203 10.5740179,12.5414396 Z" id="Path" fill="url(#linearGradient-18)"></path>
                    <path d="M6.91877546,0.00123973887 C10.4640699,0.0703622075 13.2879172,3.01270521 13.2119124,6.55740116 L12.9016094,20.9884371 C12.7807199,26.6044132 14.1829185,32.0994999 16.880191,36.9287965 C19.2441195,34.7273506 22.9521959,34.8216085 25.2158819,37.1648901 L27.9541491,39.9995098 C33.3804125,45.6166829 40.3534033,49.4923288 47.979018,51.129125 C56.7444053,53.0103932 63.9531906,59.2502669 67.0768679,67.6595688 L74.8266636,88.5228843 L69.875879,93.3052016 L55.3350251,107.351127 L53.2164663,103.916548 C45.8787123,92.0206009 37.2782015,80.9484382 27.5654474,70.8936625 L16.3089581,59.2409908 C5.79546053,48.3573439 0.0170016905,33.7614314 0.245016068,18.664007 L0.432035734,6.26714664 C0.485298935,2.7377115 3.38934031,-0.0675834983 6.91877546,0.00123973887 Z" id="Path" fill="url(#linearGradient-19)"></path>
                    <path d="M55.4529675,107.351467 L53.3344087,103.916589 C53.3344087,103.916589 53.3344087,103.916589 53.3341095,103.916589 C45.9963555,92.0206423 37.3958447,80.9487788 27.6833897,70.8940031 L25.2757734,68.4017042 L67.194511,67.6602086 L74.9443067,88.5235242 L69.9935221,93.3058414 L55.9311394,106.889753 L55.4529675,107.351467 Z" id="Path" fill="url(#linearGradient-20)"></path>
                    <path d="M16.6252193,36.8784666 C16.6518509,36.8527327 16.7479042,36.7599709 16.7479042,36.7599709 C19.1118327,34.558525 22.8196098,34.6524837 25.0835951,36.9960645 L27.8218623,39.8306842 C33.2481257,45.4478573 40.2211165,49.3235033 47.8467312,50.9602994 C56.6118193,52.8415676 63.8209038,59.0814414 66.9445811,67.4907432 L67.239324,68.2843051 L45.2808214,67.9042811 L38.329076,63.6049234 C31.4500438,59.3504504 25.1275821,54.2557355 19.5080152,48.4383766 L16.5519075,45.3784356 C14.2657791,43.0115147 14.2582984,39.164595 16.6252193,36.8784666 Z" id="Path" fill="url(#linearGradient-21)"></path>
                    <path d="M20.8643815,46.7958271 C22.1890867,46.8431586 23.4806912,46.1476792 24.7391952,44.709389 C26.130154,43.1197218 26.8256334,42.0765027 26.8256334,41.5797317 C25.2242674,38.4997516 23.4358918,36.9597615 21.4605067,36.9597615 C18.4974291,36.9597615 16.09538,39.0281927 16.09538,41.5797317 C16.09538,43.2807578 17.6850472,45.0194563 20.8643815,46.7958271 Z" id="Oval" fill="#FFE9D5"></path>
                    <path d="M73.0265322,107.477864 L36.2602612,107.477864 C35.4613132,107.477864 34.8137763,106.830328 34.8137763,106.03138 L34.8137763,92.6536384 C34.8137763,91.8546904 35.4613132,91.2071535 36.2602612,91.2071535 L73.0265322,91.2071535 C73.8254803,91.2071535 74.4730172,91.8546904 74.4730172,92.6536384 L74.4730172,106.03138 C74.4730172,106.830328 73.8254803,107.477864 73.0265322,107.477864 Z" id="Path" fill="url(#linearGradient-22)"></path>
                    <g id="Path">
                        <use fill="black" fill-opacity="1" filter="url(#filter-27)" xlink:href="#path-26"></use>
                        <use fill="url(#linearGradient-23)" fill-rule="evenodd" xlink:href="#path-26"></use>
                    </g>
                    <path d="M0.596125186,0 L0.596125186,0 C2.90074113,-4.23351081e-16 4.76900149,1.86826036 4.76900149,4.1728763 L4.76900149,12.2205663 C4.3715847,12.8166915 3.57675112,13.1147541 2.38450075,13.1147541 C1.19225037,13.1147541 0.496770989,12.8166915 0.298062593,12.2205663 L0.596125186,0 Z" id="Rectangle" fill="#FFE9D5"></path>
                </g>
            </g>
        </g>
    </g>
</svg>